<svg xmlns="http://www.w3.org/2000/svg" version="1.1" xmlns:xlink="http://www.w3.org/1999/xlink" xmlns:svgjs="http://svgjs.dev/svgjs" viewBox="0 0 1422 800"><defs><linearGradient x1="50%" y1="0%" x2="50%" y2="100%" id="ssscribble-grad"><stop stop-color="hsl(206, 75%, 49%)" stop-opacity="1" offset="0%"></stop><stop stop-color="hsl(331, 90%, 56%)" stop-opacity="1" offset="100%"></stop></linearGradient></defs><g fill="none" stroke-width="1.75" stroke="url(#ssscribble-grad)" stroke-linecap="round" stroke-dasharray="96"><path d="M2593.66 456.55C2689.59 488.45 2750.67 514.58 2761.81 534.96 2721.11 555.22 2638.29 569.57 2534.1 578.13 2397.11 588.6 2381.09 592.5 2499.17 596.27 2591.55 607.4 2665.02 626.41 2702.05 657.43 2694.3 702.39 2641.73 763.21 2555.17 840.72 2451.67 928.62 2351.6 1025.91 2273.57 1125.13 2231.04 1213.02 2229.56 1283.56 2265.85 1326.28 2331.05 1335.82 2408.33 1311.28 2480.38 1257.6 2533.2 1192.8 2553.69 1130.93 2537.08 1093.54 2485.13 1100.31 2404.97 1157.75 2308.8 1263.39 2209.77 1395.28 2122.1 1527.05 2056.58 1624.74 2020.03 1661.33 2014.5 1629.73 2036.68 1543.43 2081.3 1443.44 2137.31 1372.19 2193.89 1370.44 2242.86 1452.15 2273.77 1596.69 2281.33 1754.19 2263.95 1861.21 2221.55 1877.42 2158.29 1798.98 2079.22 1674.65 1992.03 1574.21 1904.26 1564.27 1821.51 1664.84 1750.62 1835.02 1695.32 1990.91 1657.51 2049.86 1637.74 1985.13 1634.17 1842.27 1645.43 1723.82 1666.62 1716.14 1693.32 1841.28 1737.55 2094.87 1791.35 1946.49 1787.94 1818.71 1771.71 1925.4 1744.55 2120.68 1707.88 2263.01 1662.66 2247.13 1610.77 2092.94 1554.26 1935.11 1493.35 1918.36 1430.99 2068.32 1368.76 2268.6 1305.91 2352.15 1245.26 2251.9 1187.54 2062.86 1131.36 1967.25 1078.83 2061.9 1029.93 2270 983.18 2401.92 939.82 2337.29 899.44 2141.55 860.87 2013.5 824.61 2085.68 790.14 2294.89 756.82 2435.01 724.59 2366.71 693 2161.03 661.95 2036 631.03 2125.7 599.95 2340.78 569 2454.17 537.63 2344.36 505.73 2128.47 473.84 2043.14 441.8 2179.52 409.75 2387.15 377.84 2443.57 346.18 2287.46 315.11 2083.24 284.57 2040.7 255.13 2198.49 227.28 2388.23 200.57 2414.31 176.15 2246.57 154.57 2049.36 126.67 2084.88 93.12 2306.34 88.47 2029.11 98.4 2145.82 115.5 1902.2 105.51 2059.16 88.33 2214.51 62.35 2240.13 26.21 2110.45 -20.19 1915.66 -76.89 1793.17 -143.17 1818.45 -215.86 1960.26 -293.64 2103 -373.13 2137.99 -448.99 2033.92 -518.5 1852.29 -577.19 1701.98 -621.05 1664.79 -647.84 1749.66 -655.67 1888.97 -646 1991.26 -619.83 1985.79 -580.84 1870.81 -536.82 1700 -492.43 1556.63 -455.16 1501.26 -433.71 1548.08 -432.11 1659.35 -454.5 1769.65 -501.83 1822.5 -571.48 1785.24 -658.1 1670.62 -752.35 1517.28 -844.95 1380.52 -925.04 1301.21 -982.7 1296.03 -1011.53 1354.36 -1008.19 1443.43 -975.87 1529.24 -920.27 1574.61 -852.1 1563.33 -786.81 1495.32 -736.32 1385.9 -712.81 1260.26 -724.65 1139.48 -772.37 1047.58 -851.14 994.6 -949.14 982.28 -1051.11 1004.1 -1139.69 1046.68 -1199.35 1100.89 -1219.95 1149.07 -1198.14 1181.33 -1140.84 1195.16 -1060.16 1184.49 -974.65 1151.83 -906.09 1099.83 -870.13 1034.03 -877.58 960.81 -929.8 880.83 -1017.04 802.33 -1121.73 728.66 -1221.27 656.95 -1293.82 593.04 -1322.7 536.81 -1302.21 484.32 -1236.91 438.42 -1142.8 397.64 -1044.92 359.12 -966.88 323.75 -929.37 290.28 -943.7 257.44 -1006.4 225.29 -1102.33 193.4 -1207.23 161.5 -1292.73 130.24 -1337.25 100.09 -1330.58 70.56 -1273.72 43.35 -1181.14 19.74 -1075.37 -1.59 -981.42 -17.36 -920.65 -26.06 -906.41 -31.01 -939.72 -27.78 -1010.44 -16.22 -1101.7 -2.7 -1189.51 16.17 -1252.73 37.1 -1277.24 51.28 -1255.56 58.61 -1191.89 52.74 -1098.72 27.55 -994.34 -19.01 -898.71 -89.44 -828.92 -178.31 -796.47 -282.44 -804.32 -391.93 -848.8 -489.79 -917.17 -566.2 -993.36 -607.76 -1062.38 -608.65 -1107.78 -569.9 -1119.96 -501.49 -1095.94 -428.22 -1037.68 -370.4 -953.98 -353.17 -856.28 -392.67 -758.86 -488.03 -674.53 -622.99 -596.79 -814.55 -625.81 -833.2 -702.94 -680.4 -759.26 -611.4 -805.4 -618.83 -833.65 -715.41 -840.12 -869.46 -821.29 -1023.54 -778.61 -1112.19 -715.34 -1098.64 -637.27 -996.1 -551.45 -865.05 -463.6 -789.82 -381.45 -823.06 -310.28 -962.99 -253.23 -1139.96 -213.19 -1261.44 -190.15 -1259.76 -183.74 -1144.94 -190.88 -997.66 -207.89 -926.78 -233.05 -994.95 -260.48 -1169.73 -286.37 -1342.43 -317.89 -1352.21 -325.46 -1064.63 -297.18 -1272.32 -265.94 -1448.35 -226.33 -1486.87 -180.08 -1361.4 -127.75 -1186.6 -71.65 -1118.87 -13.5 -1230.33 47.12 -1434.58 107.43 -1560.81 166.35 -1500.74 225.16 -1316.31 281.35 -1183.32 334.55 -1236.59 386.48 -1435.42 435.21 -1598.15 480.88 -1571.56 525.15 -1386.68 566.73 -1229.75 605.97 -1265.13 644.21 -1464.2 680.67 -1629.87 715.7 -1593.7 750.23 -1395.81 783.8 -1244.43 816.66 -1303.97 849.39 -1514.79 881.67 -1652.83 913.56 -1567.57 945.46 -1351.68 976.59 -1240.19 1006.86 -1350.34 1036.99 -1562.23 1066 -1647.21 1093.59 -1515.92 1120.68 -1303.93 1145.9 -1227.72 1168.83 -1358.45 1190.76 -1558.33 1209.87 -1619.71 1225.75 -1479.38 1245.67 -1232.1 1265.22 -1541.53 1265.42 -1466.99 1262.85 -1200.12 1255.69 -1446.58 1258.56 -1470.44 1267.58 -1289.25 1282.56 -1110.37 1305.18 -1068.49 1336.83 -1184.85 1377.82 -1352.92 1428.71 -1431.18 1488.14 -1352.43 1555.85 -1167.87 1630.13 -1004.98 1706.82 -968.32 1784.24 -1069.91 1858.56 -1223.46 1924.73 -1315.41 1980.18 -1273.4 2021.21 -1119.48 2045.61 -941.14 2052.12 -839.8 2040.7 -861.07 2015.17 -979.28 1977.73 -1110.73 1933.64 -1171.55 1891.58 -1121.87 1856.31 -980.64 1834.84 -814.5 1833.96 -694.24 1855.94 -667.63 1902.18 -730.88 1970.2 -844.6 2055.07 -944.44 2149.06 -980.53 2241.43 -933.18 2322.87 -815.39 2383.59 -667.97 2416.59 -534.22 2418.57 -454.28 2390.23 -441.7 2339.12 -490.22 2273.75 -571.99 2206.92 -653.07 2154.09 -707.93 2125.51 -713.78 2129.94 -668.2 2170.57 -578.44 2243.18 -463.45 2338.16 -344.79 2440.3 -237.24 2533.36 -158.1 2601.22 -112.36 2632.45 -99.79 2622.07 -114.37 2573 -145.64 2498.1 -188.25 2413.1 -228.28 2337.93 -258.32 2292.26 -277.97 2287.19 -280.32 2326.9 -266.24 2405.3 -238.22 2506.89 -197.62 2610.45 -148.6 2693.48 -91.68 2737.64 -32.08 2732.75 27.11 2681.33 88.69 2595.23 146.78 2495.77 200.22 2409.5 253.79 2357.41 302.02 2353.93 344.76 2401.65 387.38 2488.76 424.65 2593.66 456.55Q2593.66 456.55 2593.66 456.55" opacity="0.99"></path><path d="M2509.65 296.86C2601.79 327.31 2662.94 362.38 2679.3 402.15 2648.01 442.17 2575.76 487.3 2479.18 537.71 2379.61 588.59 2298.44 644.72 2252.26 705.56 2250.14 765.53 2290.34 828.15 2362.2 891.1 2450.26 948.5 2533.32 1001.05 2593.14 1044.59 2617.7 1075.47 2600.13 1091.65 2543.57 1090.29 2458.14 1074.49 2359.15 1043.28 2263.99 1000.74 2166.02 940.36 2190.79 925.1 2287.99 1015.33 2359.93 1113.81 2418.35 1230.02 2452.16 1346.68 2455.5 1440.56 2425.54 1496.82 2366.13 1502.79 2284.6 1461.24 2191.74 1384.39 2099.27 1297.71 2017.33 1236.82 1955.31 1225.81 1918.33 1280.83 1908.55 1393.68 1923.64 1537.8 1958.15 1670.85 2006.59 1748.55 2058.88 1747.96 2106.58 1671.91 2144.19 1560.39 2164.17 1465.43 2163.48 1440.35 2141.72 1509.43 2099.39 1653.2 2040.03 1815.22 1967.38 1922.87 1887.43 1930.26 1805.85 1837.41 1726.54 1703.55 1655.17 1608.52 1594.92 1619.09 1547.37 1742.26 1514.05 1918.81 1494.34 2052.83 1487.81 2069.06 1491.79 1964.03 1503.42 1811.13 1521.93 1722.49 1542.65 1767.23 1562.83 1929.59 1589.92 2145.6 1607.74 1886.38 1594.14 1843.78 1576.23 2003.48 1551.43 2189.76 1520.79 2262.42 1484.98 2169.27 1444.96 1990.8 1401.92 1881.55 1355.7 1943.02 1308.1 2132.16 1260.07 2294.95 1210.56 2295.04 1161.74 2136.07 1114.19 1963.05 1066.21 1939.04 1020.05 2092.06 975.96 2288.81 931.89 2350.44 890.04 2221.43 850.49 2024.76 811.04 1952.67 773.84 2077.74 738.9 2283.18 704.01 2369.32 671.32 2251.03 640.87 2044.41 610.43 1957.92 582.59 2076.48 557.35 2279.32 532.16 2366.65 509.62 2251.74 489.78 2046.35 461.52 1992.19 418.49 2304.71 403.17 2065.35 389.26 1940.72 365.93 2280.72 352.81 2114.72 340.6 1926.63 325.97 1863.12 307.75 1964.88 284.36 2140.93 255.73 2240.21 220.89 2179.54 179.69 1999.85 131.65 1831.94 76.63 1791.29 16.43 1896.84 -49.18 2059.04 -118.82 2152.37 -188.98 2105.2 -258.96 1943 -325.96 1768.88 -386.09 1686.88 -437.79 1738.74 -478.19 1876.65 -505.39 2005.93 -518.2 2036.43 -515.93 1945.22 -500.95 1777.75 -474.02 1622.63 -438.27 1554.32 -400.25 1597.31 -362.98 1715.15 -332.1 1834.92 -314.52 1890.53 -313.03 1846.12 -331.18 1719.31 -370.39 1559.75 -429.32 1432.27 -504.89 1379.87 -590.56 1412.69 -679.82 1504.61 -764.21 1608.19 -834.67 1679.73 -884.69 1684.39 -908.76 1618.42 -905.65 1498.45 -876.43 1359.98 -826.19 1239.33 -765.41 1161.49 -703.16 1140.73 -651.09 1170.56 -621.15 1236.79 -619.51 1312.25 -650.01 1373.29 -710.98 1405.82 -795.38 1397.3 -892.1 1349.59 -986.6 1268.68 -1065.09 1168.3 -1115.07 1063.01 -1129.26 961.17 -1105.87 876.35 -1049.92 813.32 -974.54 772.56 -894.05 753.97 -825.8 752.42 -786.42 765.86 -784.71 786.09 -823.77 807.41 -898.09 830.82 -994.3 848.23 -1094.11 857.81 -1202.99 861.47 -1160.97 822.03 -1030.59 785.54 -940.03 757.61 -872.33 727.57 -844.09 696.67 -863.5 665.2 -926.19 634.01 -1018.33 603.57 -1118.65 573.12 -1202.28 543.78 -1249.92 515.12 -1251.63 485.88 -1206.32 456.2 -1124.66 424.83 -1024.88 391.25 -928.57 353.91 -855.96 311.11 -821.82 264.06 -831.6 209.62 -881.05 146.8 -959.17 79.8 -1046.74 5.48 -1124.21 -74.28 -1175.94 -151.97 -1189.27 -228.01 -1161.12 -296.69 -1096.39 -350.37 -1006.31 -386.43 -906.97 -399.71 -814.91 -390.72 -745.36 -359.31 -708.2 -310.23 -707.8 -257.7 -740.88 -209.43 -798.48 -179.93 -869.73 -183.64 -938.8 -225.83 -992.42 -308.35 -1021.62 -419.38 -1019.02 -544.1 -984.22 -658.82 -921.25 -737.14 -838.02 -764.11 -745.27 -733.2 -653.44 -659.47 -573.68 -567.11 -513.89 -492.42 -478.98 -471.73 -470.37 -520.83 -485.48 -635.93 -520.72 -783.07 -567.62 -917.68 -617.93 -992.27 -665.63 -981.63 -701.65 -895.01 -720.85 -775.35 -721.1 -688.44 -700.13 -682.98 -659.47 -776.56 -601.67 -934.28 -531.15 -1089.1 -453.19 -1168.04 -371.71 -1135.68 -292.86 -1015.48 -220.85 -881.88 -158.01 -824.53 -107.55 -887.82 -70.23 -1048.8 -40.39 -1259.65 -48.19 -1036.75 -71.92 -949.8 -91.49 -1070.29 -109.39 -1258.47 -123.74 -1388.79 -138.03 -1300.74 -126.56 -1093.01 -100.3 -1349.02 -75.49 -1470.57 -45.47 -1425.56 -11.28 -1254.65 26.68 -1108.99 67.35 -1118.52 109.69 -1285.84 154.23 -1472.89 199.22 -1521.64 243.92 -1390.96 289.62 -1203.6 334.27 -1133.45 377.43 -1252.81 420.93 -1456.75 462.57 -1558.88 502.14 -1463.41 541.78 -1264.05 579.23 -1153.69 614.38 -1244.07 649.53 -1449.96 682.37 -1570.06 712.82 -1483.57 743.26 -1276.95 770.95 -1157.12 795.93 -1240.21 820.91 -1442.6 843.2 -1563.12 862.86 -1485 891.2 -1214.06 936.58 -1457.68 954.93 -1493.25 973.61 -1222.43 1012.99 -1356.88 1037.83 -1487.81 1058.88 -1361.39 1083.51 -1164.42 1112.74 -1051.48 1147.17 -1104.36 1187.27 -1269.57 1233.61 -1406.95 1285.25 -1404.15 1342.81 -1256.36 1405.79 -1069.29 1471.55 -971.05 1540.17 -1022.38 1609.72 -1172.58 1676.51 -1307.78 1739.63 -1324.2 1796.27 -1206.09 1861.35 -955.91 1909.73 -1046.82 1889.99 -1208.01 1863.26 -1184.71 1828.85 -1054.76 1790.94 -884.95 1756.54 -756.15 1728.7 -726.56 1712.66 -796.26 1713.77 -920.31 1733.66 -1025.13 1773.81 -1054.31 1832.91 -989.33 1907.88 -853.52 1993.54 -700.22 2081.81 -582.41 2165.7 -539.13 2236.88 -573.27 2287.94 -662.76 2314.25 -762.44 2313.21 -830.02 2287.28 -839.76 2240.31 -782.63 2180.18 -674.82 2119.14 -541.21 2066.51 -416.64 2033 -326.6 2027.67 -284.07 2053.4 -291.08 2109.75 -334.96 2190.53 -401.64 2285.58 -467.13 2381.61 -514.19 2463.98 -534.4 2520.62 -519.51 2542.54 -472.68 2527.69 -398.64 2479.21 -308.2 2406.94 -212.29 2327.37 -115.72 2255.8 -29.86 2208.25 41.17 2197.28 97.77 2226.47 137.41 2292.7 162.89 2384.67 175.71 2485.38 180.07 2575.25 180.09 2636.46 174.56 2656.59 169.86 2631.37 168.28 2567.68 165.83 2478.86 168.57 2385.1 177 2309.46 185.88 2268.71 200.49 2273.47 220.6 2324.16 240.97 2409.33 266.42 2509.65 296.86Q2509.65 296.86 2509.65 296.86" opacity="0.11"></path><path d="M2425.66 543.62C2513.94 572.61 2574.82 597.62 2595.8 618.44 2573.41 638.93 2511.82 654.64 2424.02 665.09 2327.71 674.63 2241.78 678.41 2182.42 676.37 2160.49 673.88 2178.45 666.62 2230.94 656.03 2307.51 648.51 2391.01 641.82 2464.53 639.57 2514.72 647.5 2530.36 666.29 2508.3 699.89 2452.05 749.28 2370.37 815.7 2276.58 898.32 2184.91 989.23 2109.32 1085.53 2060.03 1178.21 2042.97 1254.39 2058.04 1307.75 2099.97 1329.72 2161.19 1318.83 2228.79 1276.93 2290.69 1212.78 2337.67 1146.28 2360.12 1092.1 2354.08 1069.76 2319.75 1093.65 2260.27 1165.83 2182.7 1278.54 2095.03 1407.35 2007.27 1526.39 1928.25 1605.54 1864.67 1624.32 1821.98 1580.41 1801.99 1490.22 1804.77 1392.71 1826.64 1325.88 1862.29 1324.77 1907.35 1400.7 1953.48 1535.47 1994.34 1685.87 2026.32 1795.71 2043.49 1826.13 2043.68 1766.64 2026.72 1651.48 1992.53 1538.15 1943.52 1490.51 1882.1 1543.77 1812.45 1682.63 1738.74 1847.66 1663.5 1959.15 1591.51 1965.07 1525.65 1865.65 1467.14 1725.22 1418.48 1630.11 1380.11 1647.88 1352.04 1779.21 1333.76 1955.39 1323.85 2075.32 1322.09 2069.1 1325.78 1945.94 1332.96 1791.89 1343.98 1720.02 1355.33 1787.56 1365.52 1959.84 1375.7 2123.75 1382.64 2170.17 1385.7 2068.73 1386.53 1900.46 1382.77 1795.19 1374.52 1841.88 1363.42 2013.39 1348.11 2184.9 1329.11 2226.32 1307.66 2108.93 1283.26 1929.6 1256.56 1839.28 1228.17 1919.37 1198.28 2109.43 1167.44 2254.88 1135.67 2235.01 1103.59 2068.05 1071.64 1899.9 1039.28 1881.83 1007.46 2032.92 976.44 2222.79 945.32 2282.42 915.21 2157.59 886.21 1960.47 857.22 1873.19 829.69 1974.18 803.54 2168.77 777.29 2281.64 752.22 2210.42 728.1 2019.02 703.58 1873.41 679.59 1897 655.75 2063.31 630.97 2227.34 605.7 2245.74 579.41 2102.23 551.43 1912.21 521.63 1827.1 489.4 1907.71 454.72 2083.49 416.87 2207.55 375.36 2179.45 331.01 2017 282.72 1839.38 230.43 1772.38 175.9 1856.94 118.09 2021.19 57.67 2138.84 -2.76 2121.97 -63.73 1976.55 -123.72 1797.77 -179.86 1697.23 -231.85 1732.4 -277.7 1867.77 -315.41 2009.15 -344.03 2057.78 -362.15 1979.57 -369.96 1815.5 -366.76 1657 -352.94 1586.1 -331.76 1632.11 -303.7 1757.25 -271.59 1882.54 -240.99 1935.89 -213.66 1881.8 -193.73 1744.42 -186.21 1583.47 -192.67 1470.09 -215.49 1445.61 -255.45 1510.64 -311.54 1624.04 -381.52 1727.19 -460.39 1772.67 -543.61 1734.77 -624.83 1626.16 -696.63 1481.23 -753.71 1349.01 -790.73 1267.33 -804.97 1253.78 -795.55 1302.69 -764.22 1387.29 -717.45 1477.27 -660.93 1536.73 -603.44 1546.11 -556.07 1500.7 -525.73 1409.36 -519.46 1293.04 -541.48 1171.68 -590.91 1070.03 -663.76 1001.95 -751.52 972.75 -843.87 980.89 -928.68 1016.04 -994.2 1069.53 -1031.72 1124.28 -1035.9 1168.53 -1007.87 1197.56 -952.35 1202.77 -879.52 1184.33 -804.57 1144.27 -740.51 1086.57 -700.62 1017.6 -694.92 939.29 -725.67 859.97 -789.68 784.03 -877 710.11 -973.02 644.31 -1060.79 587.1 -1124.46 535.52 -1152.29 491.95 -1138.85 454.79 -1087.99 421.94 -1009.19 393.08 -918.62 366.45 -836.55 341.82 -779.3 317.42 -759.81 292.11 -783.7 267.28 -846.05 240.57 -934.33 211.58 -1030.05 182.58 -1111.51 151.65 -1161.63 119.2 -1170.94 87.25 -1136.8 54.76 -1066.64 22.91 -974.82 -6.92 -879.39 -34.13 -798.77 -56.89 -747.98 -75.35 -735.46 -86.95 -761.74 -90.05 -821.14 -87.53 -899.76 -75.94 -981.29 -55.7 -1050.79 -33.44 -1093.19 -7.27 -1100.34 18.42 -1070.8 34.8 -1008.46 40.45 -923.54 29.06 -829.03 -3.95 -739.6 -60.02 -668.1 -139.29 -623.96 -233.78 -611.8 -338.16 -630.59 -440.61 -675.96 -524.74 -737.46 -581.2 -803.52 -599.62 -864.14 -579.16 -907.38 -524.43 -926.08 -449.26 -917.32 -379.11 -880.39 -333.21 -819.55 -332.48 -741.05 -386.53 -653.79 -489.9 -566.98 -623 -488.34 -750.72 -425.55 -841.98 -382.96 -869.93 -362.82 -829.75 -364.36 -738.19 -384.25 -633.03 -419.27 -564.19 -462.1 -565.18 -506.29 -648.64 -547.74 -789.78 -579.26 -940.29 -597.05 -1041.49 -599.78 -1053.19 -585.17 -975.04 -554.1 -848.33 -508.14 -745.17 -450.04 -724.33 -383.46 -809.9 -310.87 -967.43 -236.99 -1123.82 -165.26 -1200.04 -97.24 -1159.35 -36.48 -1030.02 15.62 -894 58.76 -843.82 92.09 -919.4 116.26 -1086.64 131.49 -1247.88 139.42 -1307.83 141.72 -1230.91 138.28 -1075.73 132.12 -952.72 124.89 -957.07 111.7 -1188.12 96.59 -1255.59 98.43 -1029.5 102.89 -1017.72 111.38 -1156.85 123.66 -1346.45 138.02 -1440.91 155.72 -1368.35 176.3 -1189.53 198.46 -1057.18 222.85 -1085.39 248.93 -1257.9 275.99 -1432.73 304.13 -1463.51 332.96 -1323.67 362.23 -1138 391.75 -1071.05 421.24 -1186.78 450.84 -1384.27 480.2 -1486.79 509.19 -1399.57 538.19 -1202.45 566.48 -1076.1 594.15 -1132.77 621.92 -1319.73 649.3 -1466.51 676.5 -1442.76 704.15 -1268.9 732.06 -1094.79 760.62 -1066.37 790.15 -1203.29 820.94 -1383.5 853.45 -1452.44 887.56 -1350.97 924.05 -1159.12 963.37 -1027.89 1004.77 -1055.46 1049.44 -1211.85 1097.58 -1367.02 1147.69 -1397.38 1201.07 -1274.52 1257.41 -1087.4 1314.48 -967.09 1373.27 -993.42 1432.74 -1136.07 1490.23 -1287.1 1546.01 -1332.22 1598.41 -1236.78 1645.07 -1059.13 1685.45 -911.22 1717.82 -879.11 1746.19 -1100.51 1671.31 -778.22 1626.87 -844.8 1603.41 -977.57 1587.63 -1083.18 1583.16 -1102.21 1593.57 -1020.34 1619.61 -871.8 1662.12 -720.48 1719.69 -624.83 1790.12 -618.15 1869.57 -689.98 1951.76 -802.38 2031.69 -898.24 2102.87 -934.4 2158.92 -893.51 2195.67 -786.03 2209.76 -647.04 2201.41 -515.36 2171.88 -429.13 2125.49 -404.78 2070.93 -440.8 2014.91 -515.92 1966.6 -600.04 1935.95 -668.07 1928.17 -694.8 1947.46 -672.5 1994.23 -603.98 2064.45 -502.88 2150.94 -388.78 2242.85 -277.02 2329.1 -186.82 2398.07 -126.96 2440.45 -99.97 2450.73 -103.7 2427.84 -129.63 2377.59 -172.06 2308.23 -217.5 2232.56 -256.94 2144.12 -295.28 2160.85 -263.06 2272.92 -200.13 2368.26 -144.2 2459.4 -83.32 2529.99 -21.11 2567.46 44.15 2564.79 106.58 2522.51 164.68 2450.38 222.33 2362.09 274.62 2276 321.55 2211.58 367.58 2181.78 408.76 2193.98 445.53 2247.01 481.98 2329.94 514.62 2425.66 543.62Q2425.66 543.62 2425.66 543.62" opacity="0.17"></path><path d="M2341.66 224.48C2426.01 252.03 2486.28 282.1 2511.29 314.91 2497.2 348.11 2446.18 384.75 2368.05 425.47 2277.15 467.4 2189.64 514.31 2120.6 566.69 2081.6 620.54 2078.1 679.72 2109.01 743.58 2168.55 806.7 2244.12 871.6 2321.55 935.46 2388.18 992.36 2430.84 1042.11 2442.14 1080.37 2420.3 1103.95 2367.57 1110.86 2291.82 1099.24 2203.53 1073.4 2115.18 1033.74 2038.45 985.91 1968.34 925.25 2004.95 932.46 2087.95 1035.02 2150.64 1136.35 2205.5 1249.36 2244.32 1356.52 2262.28 1436.91 2255.08 1477.94 2223.12 1470.59 2169.26 1420.53 2098.66 1340.92 2018.37 1256.24 1935 1198.46 1856.54 1188.48 1789.15 1239.79 1737.13 1344.82 1703.74 1480.33 1689.42 1609.4 1693.8 1692.05 1713.47 1705.08 1744.14 1645.51 1782.83 1542.05 1822.92 1437.42 1859.61 1381.33 1890.55 1407.21 1910.61 1513.6 1917.78 1665.76 1911.85 1802.71 1891.67 1870.49 1858.45 1840.61 1813.54 1733.36 1759.26 1604.56 1698.41 1526.25 1632.5 1548.95 1565.21 1670.24 1499.01 1836.4 1434.64 1963.58 1375.09 1988.42 1321.51 1899.75 1273.8 1755.37 1233.26 1644.19 1199.66 1641.97 1172.68 1759.59 1151.82 1933.74 1136.09 2062.34 1125.54 2068.2 1118.4 1951.46 1113.5 1792.28 1111.66 1704.64 1110.4 1753.84 1108.84 1915.54 1108.49 2083.3 1106.72 2144.7 1103.04 2057.8 1099.43 1889.71 1093.38 1765.7 1084.75 1783.9 1069.9 2025.61 1026.55 2004.14 998.55 1789.93 978.87 1822.72 957.09 1989.85 933.31 2159.23 909.46 2193.51 883.74 2063.91 856.2 1876.47 828.65 1788.99 799.6 1872.99 769.05 2056.26 738.42 2188.57 706.16 2160.73 672.19 1996.18 637.97 1824.92 601.84 1780.17 563.69 1891.66 525.13 2069.66 484.39 2172.36 441.46 2120.38 398.14 1950.78 352.7 1787.14 305.31 1744.29 258 1847.4 209.27 2014.77 159.65 2122.12 111.23 2091.42 63.03 1939.92 15.99 1767.61 -27.99 1683.35 -69.18 1735.54 -106.37 1880.11 -138.37 2018.57 -164.66 2055.53 -184.19 1965.14 -199.78 1723.33 -184.13 1734.9 -156.14 1924.26 -133.82 1958.17 -109.7 1880.7 -86.25 1729.69 -61.58 1532.51 -69.11 1663.23 -112.61 1812.6 -159.19 1819.17 -217.87 1736.81 -286.6 1597.89 -361.08 1452.2 -438.13 1352.98 -512.93 1328.52 -579.7 1379.08 -634.61 1475.43 -673.34 1574.53 -693.37 1639.09 -693.42 1640.64 -673.93 1577.3 -639.07 1464.31 -592.21 1333.07 -539.47 1216.23 -489.82 1137.19 -448.9 1110.81 -423.72 1133.69 -420.44 1194.58 -440.93 1269.91 -485.55 1337.24 -551.03 1381.8 -631.51 1389.08 -718.77 1357.69 -802.56 1291.49 -873.65 1201.3 -923.24 1100.75 -945.63 998.9 -938.28 909.95 -902.69 840.7 -846.15 793.11 -776.86 769.02 -706.48 764.57 -648.63 777.53 -612.64 800.43 -606.34 827.1 -633.19 857.16 -690.19 882.34 -769.94 899.93 -860.5 912.38 -947.96 914.95 -1018.13 908.38 -1059.67 895.55 -1065.53 875.4 -1034.61 849.89 -973.65 820.39 -892.91 788.11 -807.46 754.79 -734.78 719.77 -687.87 685.47 -676.54 652.9 -704.31 619.95 -765.98 589.51 -850.33 561.96 -941.4 534.42 -1020.42 510.09 -1072.4 488.64 -1088.48 466.81 -1064.95 447.06 -1006.58 428.42 -924.29 408.1 -832.72 387.11 -747.97 363.78 -684.43 336.46 -652.18 304.21 -655.26 265.09 -692.46 219.72 -755.11 165.66 -830.97 102.23 -907.46 33.64 -969.55 -42.03 -1006.42 -122.06 -1012.34 -198.71 -984.88 -271.06 -928.07 -332.91 -849.78 -377.37 -761.02 -401.62 -673.89 -401.77 -599.31 -380.26 -546.5 -338.47 -520.61 -283.13 -523.51 -229.09 -551.98 -184.78 -599.61 -163.79 -659.43 -177.63 -720.38 -229.45 -773.08 -317.88 -811.02 -429.08 -827.05 -547.59 -818.64 -650.95 -786.3 -716.3 -732.45 -731.66 -662.52 -693.6 -582.36 -617.73 -499.74 -526.7 -421.69 -453.11 -353.54 -429.17 -300.6 -469.32 -265.38 -571.64 -249.05 -708.53 -250.47 -841.85 -266.8 -928.54 -295.81 -940.2 -331.73 -876.23 -369.69 -764.9 -407.08 -660.32 -437.94 -611.4 -459.13 -650.46 -469.72 -769.98 -466.93 -926.3 -450.75 -1054.66 -422 -1098.93 -381.63 -1042.72 -331.83 -917.18 -274.01 -794.84 -211.32 -745.03 -146.37 -805.58 -80.04 -953.05 -15.69 -1115.75 44.99 -1208.2 101.98 -1182.29 153.1 -1057.21 197.99 -912.11 237.04 -844.1 269.76 -902.35 296.74 -1060.99 318.26 -1225.76 335.23 -1297.04 348.67 -1230.71 358.23 -1076.31 365.81 -941.53 372.35 -926.34 379.07 -1140.06 394.79 -1241.63 406.34 -1006.79 414.59 -965.39 425.17 -1077.42 438.2 -1263.5 451.35 -1383.1 466.98 -1345.17 485.08 -1179.38 503.3 -1020.25 523.91 -996.48 546.86 -1131.51 569.86 -1317.54 595.13 -1402.99 622.67 -1315.57 650.22 -1128.14 679.71 -997.09 711.12 -1028.56 742.57 -1195.16 776.01 -1358.19 811.44 -1385.59 846.99 -1255.43 884.62 -1069.71 924.3 -971.42 964.11 -1032.71 1005.94 -1200.87 1049.64 -1343.21 1093.21 -1350.82 1138.34 -1214.94 1184.64 -1033.73 1230.11 -933.67 1275.97 -980.69 1321.54 -1132.9 1364.98 -1279.07 1406.86 -1311.56 1446.18 -1206.04 1481.63 -1028.97 1512.99 -893.14 1539.21 -878.79 1574.02 -1103.44 1541.13 -793.34 1508.79 -893.44 1487.71 -1032.94 1468.2 -1126.56 1452.83 -1120.59 1445.49 -1013.61 1446.84 -855.13 1459.06 -717.24 1483.85 -656.71 1521.26 -692.89 1571.27 -797.31 1631.87 -916.95 1701.35 -989.89 1776.52 -981.43 1852.28 -891 1925.15 -751.13 1990.27 -611.57 2042.7 -515.88 2079.37 -491.95 2097.39 -536.8 2096.51 -628.08 2077.02 -724.98 2041.39 -790.6 1995.87 -802.49 1944.86 -752.32 1895.33 -653.57 1856.04 -527.92 1831.87 -406.59 1828.2 -314.07 1848.48 -264.26 1892.19 -262.11 1956.79 -298.63 2036.15 -361.91 2122.73 -430.36 2207.12 -486.46 2279.32 -520.33 2331.3 -521.36 2356.61 -489.85 2353.13 -429.15 2321.65 -347.87 2267.25 -256.54 2200.31 -160.98 2130.61 -72.99 2070.23 1.73 2031.32 62.24 2020.6 104.77 2042.06 131.17 2094.48 142.88 2170.91 143.64 2260.52 137.73 2349.5 124.87 2424.04 111.46 2471.88 100.28 2485.59 88.38 2462.71 81.6 2407.24 80.58 2330.57 81.04 2245.77 87.39 2168.93 99.11 2116.01 112.04 2096.6 129.44 2115.44 150.66 2170.17 172.25 2250.59 196.94 2341.66 224.48Q2341.66 224.48 2341.66 224.48" opacity="0.36"></path><path d="M2257.69 596.88C2338.04 622.98 2397.38 647.41 2425.78 669.91 2419.32 692.01 2378.58 711.42 2310.73 727.39 2227.05 741.99 2140.94 751.99 2065.88 756.55 2013.28 758.92 1990.38 755.22 1999.35 745.37 2038.31 734.3 2099.16 718.65 2171.24 700.22 2243.94 685.34 2304.29 672.75 2342.86 666.36 2354.38 671.73 2335.82 689.91 2289.63 724.44 2221.6 775.57 2140.27 843.79 2055.74 927.11 1977.58 1017.05 1914.81 1109.63 1873.56 1195.52 1857.33 1262.85 1865.89 1305.65 1895.86 1316.97 1942.93 1297.1 1998.62 1249.03 2054.83 1182.35 2123.76 1089.81 2146.23 1099.42 2090.79 1238.8 2030.95 1360.44 1959.86 1475.31 1883.34 1556.45 1806.31 1583.92 1734.94 1552.84 1673.63 1473.59 1608.8 1336.16 1578.81 1352.47 1605.78 1543.31 1635.46 1674.13 1668.43 1753.94 1701.06 1754.21 1731.96 1679.43 1756.51 1562.61 1772.67 1457.95 1780.27 1419.56 1777.1 1471.28 1763.27 1600.37 1739.56 1754.12 1706.39 1868.37 1665.33 1891.82 1617.23 1817.51 1564.26 1685.39 1508.3 1567.84 1449.64 1534.57 1390.97 1610.12 1333.62 1763.47 1277.25 1916.5 1224.06 1990.46 1174.6 1945.83 1128.12 1813 1085.92 1672.22 1047.86 1613.36 1013.22 1679.56 982.35 1837.28 954.71 1995.27 929.97 2057.95 907.65 1988.52 887.12 1833.08 868.62 1698.14 851.05 1675.93 833.87 1788.03 817.88 1963.33 801.61 2086.34 784.62 2073.23 768.24 1935.13 750.7 1769.6 731.74 1697.19 713.01 1773.84 692.62 1946.89 670.4 2092.01 648.23 2102.64 624.13 1970.06 598.04 1792.48 571.94 1705.31 544.16 1773.02 514.78 1942.37 485.46 2087.82 454.66 2100.68 422.56 1972.62 390.69 1795.28 357.77 1694.09 324.1 1736.46 291.03 1889.46 257.66 2041.79 224.43 2086.6 192.4 1992.23 161.19 1820.16 131.38 1681.91 103.6 1663.12 78.07 1769.89 55.47 1926.85 35.76 2031.61 19.79 2013.76 8.11 1882.88 -1.93 1659.27 6.03 1794.54 22.6 1957.86 35.87 1941.53 51.08 1822.53 66.88 1661.52 80 1535.95 90.75 1504.2 97.28 1572.22 96.78 1699.71 89.04 1815.61 72.53 1860.12 46.14 1809.32 9.77 1682.29 -36.62 1532.08 -91.59 1416.17 -154.23 1377.44 -222.47 1421.5 -292.44 1523.69 -361.99 1634.15 -427.47 1704.99 -484.61 1707.27 -530.9 1635.65 -563.28 1513.65 -580.16 1376.61 -580.57 1266.32 -564.77 1210.01 -536.01 1217.05 -496.33 1276.77 -450.11 1363.17 -404.4 1449.17 -363.24 1504.03 -332.43 1511.62 -317.95 1468.45 -322.19 1382.68 -347.18 1272.9 -392.58 1157.19 -455.53 1058.15 -531.36 989.43 -612.83 957.03 -692.79 961.07 -763.14 993.23 -816.38 1045.64 -847.22 1102.71 -852.23 1152.56 -832.2 1189.55 -789.64 1204.25 -730.61 1195.38 -665.2 1164.21 -601.93 1113.58 -550.86 1049.37 -521.62 974.17 -518.93 896.04 -545.17 819.95 -598.47 745.77 -672.41 679.72 -757.54 622.85 -842.05 573.06 -914.17 532.56 -963.2 499.8 -982.24 473.21 -968.21 451.79 -923.26 433.53 -855.86 418.68 -776.16 404.5 -697.65 389.54 -634.96 375.88 -598.12 359.98 -594.27 341.07 -625.29 322.44 -685.94 300.22 -766.3 274.12 -852.7 248.03 -929.02 218.37 -982.23 185.46 -1004.23 152.83 -990.62 117.53 -944.05 80.36 -872.49 44.49 -787.35 8.21 -702.23 -26.98 -630.18 -58.77 -581.79 -87 -563.4 -109.63 -577.16 -126.09 -619.03 -134.37 -681.07 -132.9 -753.94 -124.34 -824.51 -106.14 -881.56 -79.3 -917.22 -50.57 -924.71 -19.28 -902.78 9.6 -854.17 27.5 -784.64 32.35 -702.98 18.31 -618.59 -18.02 -541.54 -77.38 -480.03 -158.42 -440.01 -252.34 -424.5 -352.88 -433.05 -448.15 -463.51 -523.16 -509.47 -569.44 -563.64 -578.62 -619.86 -551.48 -669.07 -493.36 -704.94 -417.87 -723.9 -348.3 -722.05 -302.05 -699.23 -297.67 -657.12 -344.05 -598.89 -436.99 -529.43 -560.33 -453.34 -684.06 -376.86 -780.38 -305.2 -823.24 -242.07 -802.75 -191.52 -727.49 -155.39 -624.66 -134.59 -536.85 -128.52 -498.6 -135.31 -533.39 -153.76 -636.76 -179.71 -778.91 -209.68 -911.92 -242.17 -986.82 -272.26 -978.04 -297.25 -891.17 -316.58 -769.99 -326.96 -671.06 -327.6 -647.4 -319.01 -719.06 -300.38 -861.19 -272.66 -1013.93 -236.68 -1107.23 -193.76 -1099.79 -145.58 -997.52 -92.62 -859.78 -37.27 -763.04 18.94 -767.91 76.23 -880.02 132.14 -1045.06 185.78 -1175.84 237.92 -1201.08 286.68 -1109.43 331.85 -957.65 374.39 -843.7 413.23 -841.68 448.67 -961.14 481.46 -1132.82 511.35 -1253.21 538.84 -1246.89 564.26 -1121.09 588 -960.28 610.59 -875.95 631.83 -930.78 652.59 -1091.98 673.3 -1252.64 693.28 -1302.71 713.72 -1207.97 734.93 -1035.81 755.83 -912.87 777.81 -929.58 801.07 -1077.61 824.25 -1249.58 848.85 -1318.67 874.95 -1231.56 901.04 -1053.98 928.32 -920.05 956.68 -928 984.97 -1070.48 1014.18 -1239.64 1044.11 -1311.18 1073.73 -1233.65 1103.75 -1061.71 1133.82 -915.93 1163.16 -895.13 1192.05 -1009.24 1220.03 -1174.47 1246.65 -1276.53 1271.69 -1243.09 1294.58 -1095.74 1315.41 -927.86 1333.36 -844.81 1347.91 -892.74 1367.54 -1089.42 1348.81 -803.62 1329.96 -962.29 1317.81 -1094.41 1305.93 -1147.71 1295.83 -1091.18 1290.5 -950.35 1289.8 -793.95 1295.38 -694.37 1309.22 -692.55 1331.51 -780.56 1363.13 -907.14 1404 -1009.06 1453.9 -1032.68 1512.05 -965.28 1575.84 -831.6 1644.03 -684.84 1713.85 -579.24 1781.16 -548.69 1843.7 -596.8 1897.95 -695.08 1940.54 -802.26 1969.49 -871.11 1982.89 -874.57 1980.96 -808.63 1963.8 -692.19 1933.21 -559.67 1894.09 -444.61 1849.3 -376.95 1804.02 -367.08 1765.38 -410.88 1737.08 -487.66 1723.99 -570.48 1730.2 -637.17 1756.47 -665.41 1802.6 -647.96 1865.64 -586.86 1941.07 -493.63 2022.55 -385.69 2101.98 -277.44 2172.22 -187.16 2225.96 -124.44 2257.78 -92.9 2264.55 -92.23 2245.76 -115.49 2205.49 -157.32 2148.62 -205.24 2083.36 -249.95 1995.1 -299.27 1944.42 -289.18 2006.48 -232.87 2078.26 -179.14 2162.42 -118.7 2247.72 -55.51 2322.18 11.22 2375.32 75.65 2399.16 135.93 2390.83 194.99 2351.32 248.34 2286.92 296.03 2209.44 341.52 2130.73 381.98 2064.32 418.21 2022.92 453.07 2013.21 484.85 2037.83 514.29 2093.65 543.34 2171.29 570.79 2257.69 596.88Q2257.69 596.88 2257.69 596.88" opacity="0.49"></path><path d="M2173.66 193.47C2249.96 218.12 2308.06 242.98 2339.27 268.3 2339.73 293.99 2308.86 320.87 2251.63 349.7 2176.63 379.91 2094.59 413.33 2017.13 450.95 1954.8 491.15 1915.64 536.72 1903.97 588.25 1920.91 642.46 1962.37 702.27 2021.36 766.85 2090.07 831.03 2157.3 896.39 2213.49 959.85 2251.83 1015.56 2265.88 1062.77 2253.72 1097.24 2216.76 1116.08 2158.71 1117.56 2086.22 1100.51 2006.74 1069.54 1928.87 1025.85 1860.29 975.5 1790.45 912.98 1785.83 917.29 1841.29 1014.15 1891.77 1109.87 1943.61 1216.88 1990.61 1319.43 2040.48 1420.75 2032.87 1365.06 1973.63 1243.69 1916.03 1174.7 1849.68 1141.94 1779.05 1162.05 1707.61 1236.49 1640.18 1351.89 1580.16 1481.52 1529.62 1589.45 1490.88 1647.82 1464.54 1639.32 1450.82 1570.6 1448.61 1466.4 1456.11 1367.07 1472.55 1316.06 1494.47 1337.36 1519.27 1432.24 1546.31 1570.4 1571.65 1705.2 1593.33 1786.46 1611.42 1783.99 1623.03 1701.59 1627.47 1577.12 1625.43 1472.11 1615.66 1437.65 1598.66 1498.13 1575.17 1632.23 1545.55 1783.74 1510.85 1884.16 1471.44 1887.43 1428.73 1794.58 1383.82 1654.96 1336.43 1546.86 1288.46 1530.84 1240.72 1623.2 1192.33 1779.63 1145.22 1920.22 1099.82 1969.54 1054.87 1902.51 1012.07 1758.75 971.5 1624.05 931.8 1582.77 894.34 1663.27 858.99 1823.02 824.46 1968.14 791.8 2012.42 760.81 1928.46 730.39 1771.03 701.33 1640.04 673.42 1622.45 645.8 1733.04 619.08 1902.42 593.13 2020.74 567.26 2009.84 542.01 1876.05 517.37 1708.47 492.72 1622.13 468.97 1674.41 446.16 1827.75 423.43 1980.02 401.8 2028.8 381.41 1943.08 361.31 1778.14 342.73 1639.17 325.87 1611.51 309.59 1709.53 295.36 1867.5 283.41 1984.8 272.27 1989.01 263.67 1875.45 257.75 1711.03 252.68 1588.9 250.3 1576.3 250.54 1673.81 251.22 1822.2 254.09 1932.31 258.73 1940.97 262.73 1841.37 267.46 1684.4 272.14 1549.48 274.34 1500.74 274.87 1556.84 272.66 1681.46 265.74 1808.91 254.31 1870.54 237.33 1834.78 213.86 1715.29 183.75 1564.29 146.54 1445.29 102.84 1403.87 52.6 1450.98 -3.48 1557.76 -63.14 1675.43 -125.81 1748.67 -189.51 1745.74 -250.96 1665 -308.85 1534.33 -360.56 1398.78 -403.32 1300.18 -435.66 1267.85 -455.75 1303.8 -463.22 1390.36 -457.56 1490.96 -439.32 1568.85 -411.6 1598.64 -375.71 1567.18 -335 1482.83 -295.1 1364.84 -258.69 1243.16 -230.18 1144.49 -214.59 1086.2 -213.78 1076.99 -229.96 1110.8 -263.77 1176.09 -313.84 1251.16 -377.61 1316.36 -450.27 1358.84 -526.89 1366.16 -601.22 1337.19 -666.51 1275.41 -717.48 1190.52 -749.27 1094.88 -759.47 997.22 -747.19 910.88 -714.06 842.84 -665.54 795.67 -606.74 771.74 -545.33 768.02 -490.9 782.38 -449.91 807.98 -428.96 838.74 -432.82 873.46 -461.85 904.05 -514.1 927.32 -584.19 944.71 -664.26 951.62 -744.71 948.47 -815.44 937.49 -867.54 918.02 -893.99 892.08 -891.84 860.66 -861.05 825.63 -805.95 788.91 -735.71 749.54 -659.74 710.63 -589.62 673.38 -537.26 635.23 -510.07 599.81 -513 567.72 -546.69 535.45 -606.03 506.88 -682.33 482.23 -764.03 457.59 -837.38 437.16 -891.19 420.74 -918.22 404.16 -913.67 391.21 -878.6 381.36 -818.51 370.61 -741.93 361.87 -659.89 353.97 -583.68 343.41 -523.52 331.55 -486.86 316.49 -478.14 295.96 -496.99 269.37 -539.41 234.72 -599.59 192.25 -667.39 140.16 -732.94 78.06 -788.17 10.08 -824.22 -64.74 -836.25 -143.2 -822.92 -217.71 -784.84 -286.56 -726.39 -343.64 -653.65 -382.64 -574.49 -400.9 -497.04 -395.36 -428.43 -368.95 -375.16 -323.66 -341.19 -266.48 -328.7 -211.31 -336.93 -166.28 -362.97 -143.75 -403.64 -154.02 -452.24 -199.96 -502.57 -280.41 -550.16 -383.59 -588.14 -496 -612.42 -597.95 -621.17 -668.43 -612.08 -695.2 -585.71 -672.2 -543.69 -608.8 -488.75 -521.68 -424.73 -437.49 -354.89 -386.94 -284.09 -388.53 -216.25 -450.61 -153.99 -560.79 -100.78 -692.92 -58.35 -810.23 -27.58 -876.92 -8.82 -874.54 -1.21 -805.07 -4.36 -698.62 -15.77 -596.21 -33.19 -542.86 -55.96 -567.32 -80.34 -667.1 -104.1 -810.43 -127.14 -942.87 -146.05 -1014.79 -159.6 -997.24 -168.34 -902.11 -170.19 -774.04 -165.06 -676.52 -153.82 -662.71 -135.89 -745.36 -112.03 -892.85 -82.85 -1037.54 -49.05 -1112.74 -11.68 -1082.08 29.23 -965.25 72.18 -825.33 116.26 -741.72 162.07 -766.37 207.79 -891.43 252.8 -1053.73 298.23 -1165.17 342.24 -1165.44 384.55 -1055.08 426.58 -902.39 466.65 -799.45 504.71 -813.14 542.29 -939.92 577.91 -1106.27 611.64 -1211.54 644.97 -1191.16 676.61 -1058.27 706.65 -898.21 736.48 -817.32 764.91 -869.74 792.02 -1024.45 819.07 -1180.28 844.91 -1233.85 869.56 -1147.57 894.2 -979.99 917.36 -844.92 938.99 -831.5 960.55 -947.32 980.48 -1113.02 998.66 -1218.77 1016.62 -1196.35 1032.64 -1059.32 1046.58 -894.66 1060.12 -803.43 1071.39 -839.29 1080.29 -974.89 1088.71 -1125.14 1094.71 -1195.04 1098.3 -1142.04 1102.21 -917.31 1101.05 -856.23 1098.25 -1059.45 1097.91 -1135.81 1098.2 -1102.76 1100 -976.61 1105.33 -818.92 1113.71 -706.99 1126.15 -690.18 1143.91 -770.54 1167.04 -901.01 1196.26 -1013.13 1231.61 -1051.64 1273.33 -994.27 1321.33 -865.41 1374.13 -717.08 1431.68 -609.91 1492.71 -581.76 1554.45 -637.34 1616.16 -745.59 1675.59 -856.35 1729.66 -923.82 1777.05 -916.85 1815.46 -836.75 1843.11 -708.32 1858.9 -574.19 1861.94 -474.73 1853.33 -435.49 1833.2 -462.33 1803.23 -537.95 1767.7 -635.28 1728.43 -717.61 1689.32 -758.24 1656.04 -744.54 1631.03 -677.23 1618.11 -572.99 1620.84 -452.8 1640.02 -343.92 1676.18 -265.94 1727.88 -229.28 1792.41 -236.12 1865.66 -277.37 1941.65 -341.93 2015.02 -410.31 2079.55 -466.78 2129.44 -502.18 2160.6 -506.7 2170.09 -480.1 2158.11 -425.2 2125.87 -349.5 2077.31 -262.69 2019.92 -170.71 1959.84 -84.84 1905.16 -11.16 1864.78 48.59 1843.75 90.35 1846.44 115.25 1874.49 124.53 1925.51 121.56 1994.65 110.56 2074.1 91.83 2154.75 71.64 2226.66 53.1 2295.57 27.27 2258.07 8.28 2163.19 16.01 2088.37 25.66 2017.86 39.9 1962.65 57.69 1932.45 76.87 1931.59 98.34 1961.08 121.33 2017.36 144.68 2091.96 168.83 2173.66 193.47Q2173.66 193.47 2173.66 193.47" opacity="0.20"></path><path d="M2089.66 603.78C2161.85 626.98 2218.38 650.73 2251.78 674.76 2258.38 698.46 2236.79 721.79 2190.2 743.99 2124.95 764.91 2049.29 783.46 1972.83 798.56 1879.12 814.76 1829.39 813.95 1879.75 794.66 1935.98 777.49 1999.45 755.71 2061.91 731.3 2136.29 701.31 2159.04 689.02 2100.53 726.92 2039.1 774.44 1967.79 838.81 1893.25 917.85 1821.59 1003.68 1759.15 1092.21 1710.58 1174.75 1672.54 1261.95 1709.43 1260.13 1768.66 1175.23 1815.52 1107.9 1860.81 1048.52 1900.03 1012.98 1930.62 1014.64 1948.39 1057.61 1951.75 1139.92 1940.6 1247.4 1914.77 1362.42 1875.92 1461.58 1825.94 1522.27 1767.81 1532.44 1704.78 1489.81 1639.15 1409.73 1574.75 1314.96 1514.27 1236.6 1459.24 1204.69 1412.12 1233.45 1373.91 1321.96 1345.03 1447.15 1325.66 1575.12 1315.11 1666.84 1313.19 1693.35 1318.07 1647.95 1328.14 1548.16 1343.29 1435.97 1360.64 1355.65 1378.58 1344.61 1397.48 1413.91 1414.42 1542.4 1428.37 1683.9 1440.19 1782.93 1447.61 1801.62 1450.35 1732.96 1446.55 1551.2 1409.83 1529.85 1378.86 1740.86 1354 1854.3 1326.49 1877.81 1296.98 1800.38 1265.4 1664.11 1232.67 1539.39 1199.34 1494.76 1164.81 1558.47 1130.33 1701.02 1096.31 1850.06 1061.7 1926.76 1027.97 1890.57 995.37 1761.31 962.54 1613.67 931.06 1531.46 901.1 1564.97 871.07 1697.73 842.65 1854.91 815.93 1945.17 789.19 1915.25 764.2 1781.93 741 1624.47 717.8 1539.48 696.68 1577.33 677.6 1713.11 658.51 1866.14 641.42 1944.39 626.27 1902.88 611.05 1765.73 597.67 1611.11 586.02 1524.87 574.12 1552.69 563.72 1675.29 554.59 1821.47 544.86 1910.81 535.98 1892.52 527.57 1776.26 513.06 1563.05 478.01 1629.99 454.63 1816.9 435.29 1861.86 412.89 1807.42 386.89 1678.4 357.16 1530.91 323.28 1429.27 284.99 1412.95 243.08 1483.78 197.02 1604.18 147.11 1717.48 95.07 1774.34 40.61 1747.22 -15.23 1646.07 -70.12 1507.02 -123.83 1381.23 -174.73 1310.66 -220.56 1315.1 -260.58 1386.15 -293.15 1491.44 -317.09 1591.76 -331.59 1647.12 -335.9 1637.66 -330.87 1564.29 -316.28 1448 -293.06 1321.79 -264.41 1217.04 -231.13 1160.15 -195.91 1159.63 -163.28 1210.32 -134.83 1291.6 -113.77 1377.19 -103.85 1444.87 -106.19 1473.35 -122.43 1455.52 -153.18 1393.76 -197.55 1300.23 -253.95 1192.96 -318.96 1087.85 -389.24 1003.41 -460.26 949.64 -526.59 930.35 -584 943.8 -627.99 981.73 -655.26 1036.7 -663.81 1094.51 -652.98 1144.53 -625.09 1181.46 -582.45 1196.93 -529.67 1189.62 -474 1160.59 -420.64 1112.48 -376.22 1050.72 -347.55 978.08 -337.93 902.16 -349.99 827.96 -384.06 756.05 -437.36 692.37 -505.23 638.24 -580.78 592.29 -656.33 556.4 -723.61 529.15 -790.03 502.53 -767.16 478.39 -684.19 471.69 -614.52 468.91 -544.57 464.04 -483.91 456.24 -441.91 448.96 -423.79 438.05 -432.71 423.19 -468.43 408.4 -526.14 389.47 -598.33 366.28 -675.31 343.08 -745.46 315.89 -799.29 284.87 -830.44 253.92 -834.03 219.31 -809.92 181.42 -761.67 144.03 -695.27 104.05 -619.3 62.34 -543.1 22.46 -475.86 -17.46 -425.23 -55.82 -396.83 -89.79 -392.95 -119.43 -412.8 -142.61 -453.77 -158.31 -509.16 -164.96 -571.47 -161.1 -633.9 -149.05 -687.5 -127.02 -725.84 -96.28 -745.12 -63.25 -742.02 -28.03 -716.77 4.41 -671.79 25.98 -611.13 34.4 -540.59 24.27 -466.08 -7.58 -394.38 -61.68 -331.27 -136.69 -281.22 -224.79 -247.7 -320.13 -232.03 -412.05 -234.54 -486.94 -253 -536.77 -284.08 -553.24 -325.01 -535.23 -369.99 -485.94 -414.22 -415.34 -470.53 -312.72 -509.15 -300.12 -483.36 -430.11 -448.36 -547.53 -402.07 -659.94 -347.21 -741.04 -285.9 -770.94 -221.74 -743.75 -157.72 -667.93 -95.6 -570.65 -38.53 -482.52 11.73 -436.53 54.44 -454.44 88.3 -536.38 113.25 -662.5 130.44 -831.13 85.08 -571.3 61.44 -646.05 46.26 -780.03 33.95 -920.23 25.13 -1009.96 18.7 -1012.54 16.57 -928.87 18.76 -798.38 24.12 -686.35 33.72 -647.94 47.18 -707.94 63.61 -842.57 83.29 -991.36 105.67 -1083.61 130.34 -1075.09 156.95 -971.4 184.94 -827.14 214.45 -721.91 244.66 -713.59 275.11 -811.86 306.43 -966.98 337.49 -1097.49 367.97 -1132.15 398.86 -1052.74 428.85 -903.84 457.7 -771.25 486.72 -734.29 514.43 -815.97 540.71 -971.31 567.01 -1109.44 591.81 -1148.51 615 -1063.57 638.2 -906.12 659.52 -771.59 679.03 -739.3 698.57 -827.2 716.37 -980.9 732.54 -1109.1 748.86 -1138.06 763.73 -1050.18 777.33 -895.75 791.34 -759.67 804.41 -715.56 816.84 -783.27 836.7 -989.63 879.62 -984.55 905 -766.78 924.7 -676.24 946.66 -685.63 971.4 -783.99 999.12 -920.24 1030.22 -1023.57 1065.05 -1043.2 1103.06 -968.32 1144.89 -830.87 1190.49 -689.98 1238.48 -602.43 1289.44 -601.31 1342.7 -679.63 1396.22 -800.45 1450.17 -907.35 1503.29 -954.22 1553.28 -920.75 1599.79 -817.11 1641.24 -680.77 1675.92 -556.82 1703.09 -486.42 1721.53 -487.12 1731.07 -553.04 1731.07 -654.4 1721.55 -752.21 1704.46 -813.33 1679.92 -813.93 1649.62 -753.1 1617.42 -645.81 1584.39 -521.37 1553.48 -410.88 1529.02 -337.85 1512.42 -316.89 1506.34 -345.75 1513.33 -413.08 1533.78 -495.59 1568.11 -569.88 1615.26 -619 1673.43 -628.11 1739.75 -595.28 1809.79 -525.25 1879.76 -430.73 1944.84 -327.64 2000.07 -228.63 2041.85 -149 2066.81 -96.35 2073.59 -73.38 2061.66 -78.92 2032.3 -106.49 1989.88 -150.95 1937.97 -200.83 1882.33 -247.5 1809.32 -299.7 1758.21 -296.71 1799.05 -243.21 1852.45 -190.78 1920.16 -131.05 1995.67 -68.02 2071.07 -1.52 2138.55 62.78 2190.57 122.89 2221.46 180.88 2227.6 232.71 2208.15 278.4 2166.48 320.55 2107.12 357.15 2037.72 389.2 1968.55 418.6 1907.85 444.89 1864.19 469.16 1844.67 492.13 1851.73 514.32 1885.2 536.43 1941.35 558.22 2012.68 580.58 2089.66 603.78Q2089.66 603.78 2089.66 603.78" opacity="0.99"></path><path d="M2005.66 211.08C2073.67 232.83 2128.35 252.87 2163.32 271.44 2175.26 290.28 2162.22 308.2 2126.05 325.81 2071.22 344.55 2003.78 364.11 1931.37 385.52 1861.77 409.42 1802.31 436.71 1758.86 468.57 1735.63 504.3 1734.06 545.86 1753.23 593.9 1791.01 645.79 1841.83 703.68 1899.54 766.66 1958.74 830.01 2011.81 894.67 2053.11 957.56 2079.17 1013.11 2086.3 1060.32 2073.77 1095.16 2042.75 1114.63 1995.47 1117.18 1936 1101.65 1868.76 1071.75 1799.22 1028.72 1732.54 977.78 1672.98 929.36 1624.68 888.44 1590.18 863.85 1571.07 863.93 1567.35 891.57 1577.76 948.28 1601.09 1028.49 1633.6 1125.17 1671.72 1226.1 1713.15 1314.65 1752.92 1379.11 1787.73 1407.87 1815.99 1396.84 1834.23 1348.67 1841.15 1273.95 1836.69 1193.48 1820.16 1125.69 1792.5 1090.99 1754.81 1103.62 1708.85 1165.23 1656.8 1266.82 1600.05 1385.46 1541.45 1495.35 1483.13 1568.89 1426.07 1587.18 1372.76 1546.79 1324.45 1460.36 1281.46 1358.58 1245.06 1274.18 1215.36 1239.16 1192.31 1270.92 1175.7 1364.21 1164.84 1493.55 1165.41 1620.3 1198.28 1352.37 1210.6 1446.07 1218.19 1581.62 1223.54 1712.82 1226.38 1786.95 1228.15 1774.27 1227.13 1681.32 1223.35 1549.76 1218.23 1442.06 1210.45 1408.49 1200.24 1469.25 1188.81 1599.91 1175.27 1743.1 1159.91 1832.93 1143.66 1827.57 1125.97 1729.91 1107.11 1587.86 1087.72 1474.34 1067.51 1446.82 1046.7 1522.49 1025.64 1664.96 1004.24 1802.95 982.63 1865.09 960.97 1818.95 939.23 1687.71 917.48 1540.47 895.73 1457.34 874.24 1481.89 852.95 1599.1 831.61 1747.35 810.35 1847.49 789.04 1848.25 767.49 1749.67 745.66 1601.48 723.34 1477.2 700.49 1436.26 676.81 1495.97 652.05 1623.43 626.39 1756.15 599.28 1827.69 570.45 1804.09 540.4 1695.43 508.31 1550.47 473.99 1432.67 438.31 1390.84 400.29 1439.39 359.92 1551.88 318.48 1677.87 274.98 1759.52 229.7 1761.6 184.27 1681.92 137.92 1550.92 91.28 1418.42 46.15 1331.4 2.15 1319.22 -39.73 1380.07 -77.95 1487.86 -112.34 1597.45 -141.85 1666.83 -165.63 1670.7 -183.11 1605.02 -193.58 1490.97 -197.4 1361.93 -193.93 1256.96 -183.29 1203.55 -167.32 1212.58 -145.75 1275.45 -119.81 1367.75 -92.61 1461.32 -64.49 1524.77 -37.57 1539.63 -15.36 1500.93 1.41 1416.79 10.6 1307.06 9.76 1193.52 -1.53 1100.84 -24.19 1044.73 -58.22 1032.08 -102.87 1060.41 -156.81 1117.94 -217.29 1191.57 -282.02 1261.46 -347.63 1312.68 -409.93 1336.67 -465.87 1326.62 -511.85 1284.61 -544.9 1215.5 -563.04 1129.56 -564.97 1037.96 -551.52 948.37 -523.46 871.95 -483.29 814.21 -436.01 777.11 -385.03 761.91 -335.48 765.51 -293.71 785.81 -263.26 816.22 -248.18 851.05 -251.59 888.83 -273.77 922.1 -313.96 947.78 -369.4 966.69 -435.68 974.77 -507.15 972.35 -577.14 961.11 -639.28 940.85 -687.42 913.57 -716.95 879.97 -724.77 842.32 -709.93 802.6 -674.87 759.78 -622.81 717.21 -559.59 676.13 -493.54 634.03 -431.46 594.57 -380.93 558.29 -349.06 521.85 -339.28 488.92 -353.39 459.67 -390.54 430.43 -446.32 404.89 -514.33 383.14 -586.56 361.39 -653.29 343.7 -706.57 329.98 -740.93 316.28 -751.64 306.54 -737.73 300.63 -701.25 294.55 -646.1 291.96 -578.64 292.35 -506.23 291.72 -436.62 292.91 -376.97 294.73 -321.18 291.94 -342.9 261.01 -410.17 223 -467.59 185.97 -525.73 138.86 -578.25 81.35 -620.61 17.08 -647.31 -54.33 -655.68 -129.8 -645.21 -202.32 -616.03 -269.95 -570.7 -326.97 -512.66 -367.31 -446.57 -388.35 -377.55 -386.97 -310.12 -364.94 -249.3 -323.71 -198.84 -268.76 -150.02 -185.88 -147.48 -127.28 -186.02 -195.04 -222.52 -278.58 -261.97 -380.21 -300.82 -484.96 -352.01 -603.03 -398.55 -591.64 -386.52 -474.86 -363.79 -393.63 -330.87 -337.3 -289.4 -325.69 -240.64 -367.66 -186.95 -457.51 -130.49 -576.74 -72.32 -694.73 -15.14 -782.56 39.4 -815.8 90.82 -786.59 137.2 -705.06 177.89 -598.66 212.88 -507.25 241.55 -463.41 264.17 -488.3 280.86 -578.71 292.26 -708.54 299.19 -835.73 301.52 -915.99 300.81 -922.39 297.99 -853.09 289.39 -681.21 270.22 -626.69 262.99 -815.15 258.9 -941.78 257 -1003.57 257.43 -974.04 258.63 -868.53 262.31 -734.89 268.4 -636.58 275.38 -623.3 284.63 -704.2 295.98 -845.3 308.06 -981.17 321.96 -1048.3 337.48 -1013.77 353.47 -895.89 370.79 -753.05 389.25 -658.74 407.94 -663.76 427.55 -767.12 447.95 -917.53 468.4 -1036.95 489.53 -1062.66 511.28 -979.57 533.02 -832.33 555.13 -699.97 577.63 -651.61 600.18 -711.53 623.24 -846.25 646.91 -984.44 670.8 -1055.84 695.53 -1023.01 721.25 -903.14 747.44 -754.71 774.91 -649.63 803.84 -635.84 833.51 -717.25 864.91 -851.04 898.18 -971.36 932.35 -1021.79 968.54 -976.92 1006.8 -856.96 1045.82 -713.14 1086.76 -606.95 1129.45 -580.11 1172.32 -640.08 1216.37 -756.22 1261.12 -875.84 1304.88 -948.65 1348.27 -941.79 1390.51 -857.49 1430.05 -725.99 1466.99 -595.83 1500.37 -511.83 1529.14 -499.83 1552.93 -558.8 1570.88 -661.56 1582.9 -769.87 1588.32 -841.31 1586.84 -850.45 1579.67 -792.81 1566.23 -684.99 1547.15 -559.01 1524.94 -448.39 1499.5 -383.04 1472.45 -375.64 1447.1 -423.48 1423.9 -506.95 1404.97 -598.47 1393.34 -672.96 1389.6 -706.76 1395.37 -690.9 1412.01 -627.72 1439.49 -530.75 1477.77 -420.46 1525.61 -315.9 1581.67 -237.23 1643.72 -195.06 1708.25 -192.7 1772.65 -225.4 1833.33 -281.6 1886.4 -350.19 1929.14 -413.93 1958.73 -460.63 1973.59 -483.83 1972.73 -477.4 1956.32 -442.86 1926.9 -383.63 1886.32 -307.54 1838.29 -223.42 1788.66 -136.77 1741.13 -57.5 1700.79 9.11 1673.15 61.38 1660.81 96.05 1666.27 114.27 1690.58 117.13 1732.33 108.08 1788.82 91.13 1855.47 66.84 1926.83 41.22 1996.53 17.33 2057.97 -6.2 2105.49 -24.21 2134.27 -35.85 2141.85 -43.64 2127.2 -44.55 2091.82 -39.27 2040.56 -30.12 1978.35 -16.04 1912.31 1.76 1851.22 22.06 1801.42 44.54 1769.25 68.16 1759.64 92.9 1773.6 117.65 1810.14 141.76 1865.6 166.15 1933.43 189.34 2005.66 211.08Q2005.66 211.08 2005.66 211.08" opacity="0.72"></path><path d="M1921.66 562.71C1985.44 583.01 2037.98 605.42 2073.93 629.75 2090.35 653.86 2085.03 679.46 2058.81 705.99 2014.65 731.63 1956.77 757.27 1890.96 781.99 1823.43 804.58 1760.48 824.8 1707.68 841.43 1659.28 858.19 1679.47 855.18 1739.55 832.96 1791.85 812.57 1846.26 787.12 1897.55 758.44 1958.21 720 1986.68 684.27 1948.83 706.59 1904.89 742.95 1850.45 795.9 1789.29 864.16 1724.95 941.74 1661.79 1025.27 1603.48 1107.6 1552.82 1178.82 1512.59 1233.45 1484.24 1264.44 1468.68 1268.25 1465.6 1244.47 1473.87 1196.25 1492.73 1134.17 1519.25 1067.1 1550.82 1008.48 1586.08 973.35 1621.15 969.78 1653.52 1003.74 1682.27 1072.73 1704.29 1168.41 1718.3 1275.81 1724.25 1374.07 1720.81 1446.24 1708.18 1477.19 1686.98 1461.41 1657.71 1403.13 1621.6 1317.03 1579.44 1228.58 1532.96 1160.89 1483.67 1136.11 1432.11 1165.94 1380.37 1246.77 1329.68 1361.47 1280.12 1480.06 1233.45 1572.49 1190.3 1612.72 1150.42 1590.29 1114.84 1512.94 1083.56 1406.02 1056.29 1308.11 1033.19 1252.68 1013.85 1263.11 998.19 1340.33 985.6 1462.18 975.5 1589.82 968.19 1679.56 962.5 1701.36 957.86 1647.39 955 1540.1 952.41 1420.29 949.64 1336.51 947.82 1325.46 945.24 1394.24 941.61 1519.5 938.36 1652.64 933.73 1741.69 927.56 1750.03 921.46 1675.25 913.68 1548.72 904.13 1425.46 894.55 1361.62 883.19 1386.26 870.03 1491.4 856.82 1631.62 841.84 1745.26 825.08 1780.43 808.31 1721.06 789.78 1593.43 769.48 1456.47 749.19 1375.7 727.36 1388.22 704.05 1486.42 680.72 1625.03 655.88 1738.9 629.55 1776.66 603.18 1722.03 575.3 1599.05 545.95 1461.75 516.56 1368.13 485.73 1356.74 453.55 1429.03 421.45 1553 388.14 1673.54 353.81 1739.75 319.86 1724.6 285.23 1632.94 250.23 1500.81 216.18 1377.37 182.33 1308.34 149.17 1315.73 117.78 1393.69 87.86 1508.72 60 1615.67 34.92 1675.51 12.78 1664.33 -5.82 1585.82 -20.76 1464.65 -31.47 1340.12 -37.52 1250.01 -39.58 1219.01 -36.83 1252.7 -29.28 1335.11 -18.46 1438.91 -3.61 1527.99 14.66 1574.44 34.07 1564.31 55.06 1498.48 76.44 1394.48 95.54 1276.68 112.4 1174.34 125.52 1109.29 132.58 1092.89 133.4 1124.53 126.75 1191.24 111.54 1275.87 87.74 1354.24 55.19 1407.44 14.57 1424.28 -33.4 1399 -87.46 1336.78 -145.14 1247.19 -204.85 1146.43 -264.08 1050.4 -319.62 970.8 -369.42 918.93 -410.85 898.2 -441.7 908.2 -460.49 942.92 -466.06 993.17 -458.85 1051.86 -439.01 1106.58 -408 1149.17 -369.33 1175.94 -325.06 1181.3 -278.82 1165.38 -235.77 1129.67 -198.64 1077.69 -171.22 1014.63 -157.3 943.13 -158.17 870.21 -174.98 800.29 -207.58 734.13 -254.1 676.78 -311.72 629.34 -376.2 590.9 -442.95 562.68 -506.69 543.26 -608.11 530.31 -523.53 546.57 -433.93 550.03 -374.06 551.7 -321.18 549.9 -281.04 544.41 -258.83 538.81 -256.55 529.48 -275 516.46 -312.98 503.36 -366.55 486.67 -430.33 466.38 -497.79 446.08 -560.9 422.42 -613.08 395.43 -649.76 368.37 -666.48 337.87 -661.79 303.94 -636.65 269.9 -593.27 232.46 -536.1 191.86 -470.66 151.57 -403.08 108.76 -339.56 64.23 -285.64 21.49 -245.83 -21.2 -223.01 -62.29 -218.87 -98.72 -232.62 -130.7 -262.03 -156.13 -304.59 -173.55 -354.99 -181.76 -408.15 -179.36 -460.09 -167.94 -504.94 -146.21 -538.7 -115.23 -559.19 -80.48 -563.7 -42.3 -551.87 -5.07 -524.64 23.71 -483.57 41.89 -431.62 44.28 -371.87 26.88 -308.38 -11.3 -245.08 -70.38 -185.14 -145.3 -132.18 -231.83 -88.66 -321.81 -56.25 -403.34 -36.01 -468.82 -27.89 -509.01 -31.76 -518.49 -45.81 -496.25 -67.98 -445.7 -97.17 -378.71 -129.83 -306.41 -163.36 -244.66 -196.69 -210.27 -226.28 -212.21 -250.3 -255.64 -268.36 -335.42 -278.24 -439.76 -279.47 -549.7 -272.4 -641.73 -256.61 -698.03 -232.82 -705.61 -201.74 -664.55 -164.44 -585.5 -122.28 -490.27 -75.83 -408.84 -26.97 -364.86 22.94 -375.84 73.75 -443.41 123.49 -552.88 171.26 -676.32 217.27 -778.4 260.04 -830.99 299.22 -818.11 335.24 -746.12 367.32 -638.92 395.6 -534.26 420.44 -472.24 441.81 -476.75 460.14 -551.45 475.5 -673.27 488.5 -802.35 499.66 -893.51 508.65 -914.12 516.53 -857.45 523.82 -745.48 529.71 -624.8 535.63 -543.68 541.93 -538.17 547.48 -614.03 553.86 -743.32 561.33 -875.13 568.45 -955.27 576.91 -950.82 586.87 -863.18 602.42 -672.83 641.86 -663.36 665.96 -862.44 682.62 -962.71 701.08 -976.3 721.38 -895.57 741.68 -758.62 763.57 -629.93 787 -568.5 810.42 -601.6 835.37 -712.17 861.78 -848.38 888.16 -949.53 915.95 -969.21 945.05 -899.46 974.02 -770.26 1004.18 -636.82 1035.34 -554.18 1066.15 -554.66 1097.7 -634.92 1129.73 -758.38 1161 -873.99 1192.3 -932.23 1223.23 -909.74 1252.77 -814.53 1281.32 -682.39 1308.36 -561.9 1333.22 -494.72 1355.83 -502.45 1375.65 -577.29 1399.17 -743.13 1422.15 -814.5 1420.32 -662.12 1414.47 -537.1 1404.54 -440.84 1390.85 -398.75 1375.41 -419.32 1357.49 -491.34 1337.96 -588.79 1319.32 -682.36 1301.21 -741.34 1284.95 -748.62 1272.97 -701.28 1265.3 -610.32 1263.26 -497.9 1268.51 -387.83 1281.17 -304.89 1301.95 -263.78 1331.02 -269.41 1368.14 -315.6 1412.8 -387.25 1463.42 -468.05 1518.98 -536.5 1577.62 -577.66 1636.46 -583.78 1693.77 -551.77 1746.92 -487.62 1793.06 -399.97 1830.39 -303.27 1856.84 -211 1871.29 -132.59 1872.92 -78.05 1861.64 -50.57 1839.25 -50.26 1806.69 -73.07 1766.39 -111.95 1722.74 -161.95 1678.14 -212.63 1636.49 -256.89 1590.77 -301.41 1582.98 -283.77 1628.45 -226.1 1677.09 -172.45 1735.98 -112.61 1801.12 -50.27 1867.47 14.42 1930.2 76.31 1984.21 133.53 2025.08 187.5 2049.4 234.87 2054.93 275.7 2041.78 311.83 2010.73 342.04 1964.64 367.42 1908.96 389.07 1848.28 407.47 1788.79 423.81 1737.56 438.02 1699.18 451.62 1678.06 465.52 1677.38 478.52 1697.14 492.75 1735.85 508.72 1790.07 524.48 1854.2 542.41 1921.66 562.71Q1921.66 562.71 1921.66 562.71" opacity="0.63"></path><path d="M1837.69 273.17C1897.19 292.02 1947.3 308.08 1983.63 321.5 2003.67 335.08 2005.14 346.31 1988.14 355.6 1954.55 365.55 1907.04 374.25 1849.79 382.45 1787.52 392.31 1725.3 402.89 1667.99 415.28 1619.89 430.89 1584.4 449.93 1563.71 473.63 1559.13 502.1 1570.02 536.57 1594.72 577.79 1631.45 623.94 1676.04 676.53 1724.55 734.9 1773.94 795.07 1819.22 857.68 1856.9 920.09 1884.94 977.12 1900.34 1027.87 1902.06 1068.59 1890.22 1095.75 1865.07 1107.82 1828.21 1102.97 1781.62 1082.89 1728.02 1048.05 1670.39 1001.71 1611.28 951.9 1553.99 902.48 1501.13 861.01 1454.58 836.5 1416.4 832.92 1387.64 854.78 1368.98 902.29 1360.37 972.86 1361.11 1060.26 1370.93 1152.66 1387.86 1240.17 1410.15 1310.27 1437.18 1351.87 1466.01 1359.47 1494.79 1331.42 1523.11 1274.92 1548.18 1199.87 1568.75 1122.05 1584.9 1061.1 1594.77 1030.42 1598.01 1040.87 1595.07 1094.15 1585.31 1182.77 1569.18 1290.98 1547.21 1395.54 1519.87 1475.5 1488.05 1512.47 1452.07 1498.59 1413.13 1437.88 1372.19 1346.41 1329.19 1251.66 1285.67 1179.54 1242.35 1153.5 1198.84 1184.92 1156.6 1268.4 1116.07 1383.99 1076.57 1499.68 1039.31 1584.06 1004.41 1612.23 971.13 1576.77 940.29 1489.01 911.76 1377.57 884.94 1281.71 860.21 1233.78 837.32 1253.36 815.9 1336.93 795.94 1458.95 777.18 1579.52 759.5 1657.29 742.61 1665.79 726.23 1601.59 710.56 1489.43 695.07 1370.06 679.52 1289.29 664.36 1280.01 648.89 1347.1 632.94 1467.15 617.16 1594.65 600.73 1680.83 583.55 1691.21 566.41 1621.74 548.44 1499.11 529.59 1372.48 510.74 1294.57 491.25 1296.41 471.16 1375.69 451.11 1500.69 430.57 1620.15 409.63 1687.08 388.88 1676.26 367.91 1591.5 346.92 1465.58 326.32 1344.87 305.96 1273.53 286.08 1275.39 266.91 1348 248.58 1462.06 231.37 1574.73 215.24 1646.28 200.64 1649.87 187.87 1584.5 176.56 1471.34 167.46 1347.54 160.83 1251.97 155.91 1212.61 153.68 1239.07 154.3 1318.88 156.54 1425.65 161.55 1522.77 169.21 1579.59 177.92 1579.07 188.77 1519.79 201.33 1418.47 213.7 1300.94 226.73 1198.34 239.7 1134.92 250.63 1123.63 260.02 1163.52 266.96 1239.93 269.73 1332.44 268.52 1414.2 262.46 1464.33 250.56 1471.11 232.81 1431.22 208.79 1353.48 178.58 1252.21 142.29 1148.03 100.28 1059.65 53.85 1000.32 3.49 978.81 -49.52 994.41 -103 1041.77 -155.94 1107.85 -206.47 1178.22 -252.26 1241.46 -292.08 1283.82 -324.15 1298.51 -347.16 1283.55 -360.16 1240.14 -362.46 1174.65 -354.67 1093.49 -336.79 1007.41 -309.86 925.43 -276.63 853.1 -238.28 797.84 -197.41 762.14 -158.02 746.45 -121.96 749.51 -92.18 767.51 -72.13 798.27 -63.06 835.2 -66.56 873.38 -83.61 911.57 -113.6 943.46 -155.45 966.74 -206.95 982.01 -265.28 986.36 -326.91 980.36 -387.66 965.25 -443.72 941.54 -491.08 911.17 -526.41 874.55 -547.12 834.27 -551.52 792.17 -539.8 747.21 -512.46 702.75 -471.63 659.88 -421.59 616.39 -365.78 575.6 -309.04 537.9 -257.31 500.45 -214.44 466.3 -184.57 435.42 -171.3 404.86 -175.59 377.38 -197.52 352.88 -235.74 328.49 -286.8 306.87 -346.3 288.02 -408.97 269.17 -468.26 253.32 -518.83 240.49 -567.75 223.01 -551.59 205.13 -489.99 205.28 -433.95 206.83 -372.19 211.77 -309.69 219.72 -251.21 227.04 -201.13 236.27 -162.92 246.34 -135.03 256.42 -176.33 252.83 -234.93 229.43 -282.6 201.99 -331.11 164.58 -376.57 116.65 -416.41 60.72 -446.62 -3.41 -465.04 -73.42 -470.9 -143.43 -463.03 -211.76 -441.97 -273.47 -408.97 -322.42 -365.76 -355.99 -314.87 -370.34 -258.61 -364.66 -200.17 -338.96 -142.44 -295.68 -87.54 -242.75 -38.24 -185.22 3.68 -132.08 37.08 -94.61 60.95 -78.7 75.19 -90.69 79.69 -132.34 75.49 -201.11 63.84 -290.2 45.21 -386.43 22.05 -477.81 -3.81 -549.88 -31.96 -590.19 -59.49 -592.81 -84.9 -557 -108.09 -492.12 -126.7 -410.84 -139.95 -331.81 -148.18 -276.31 -150.04 -258.02 -145.56 -285.75 -135.29 -356.83 -119.02 -458.89 -97.35 -571.02 -70.74 -667.06 -39.9 -725.92 -5.67 -732.88 31.8 -687.73 71.26 -602.67 111.89 -501.95 153.97 -417.43 196.02 -374.22 237.47 -389.01 278.92 -461.15 318.98 -572.85 357.35 -693.43 394.84 -787.07 430.3 -826.6 463.68 -799.51 495.81 -716.21 525.87 -603.86 553.97 -501.32 580.85 -446.57 605.99 -459.95 629.62 -540.45 652.24 -662.09 673.66 -784.3 694.1 -864.21 713.84 -873.36 732.92 -808.47 751.54 -693.29 769.75 -572.89 787.78 -492.74 805.76 -485.61 823.56 -556.24 841.5 -678.5 859.69 -805.39 877.83 -886.59 896.31 -889.43 915.15 -811.56 934 -684.94 952.99 -561.33 972.08 -489.94 991.11 -498.39 1010.15 -581.73 1029.06 -705.49 1047.79 -821.84 1066.21 -884.31 1084.14 -869.55 1101.67 -783.28 1118.45 -657.51 1134.25 -538.06 1149.35 -466.56 1163.16 -466.89 1175.43 -535.66 1186.7 -647.25 1196.11 -759.46 1203.43 -832.42 1209.52 -841.39 1213.29 -782.03 1214.61 -673.93 1213.48 -499.83 1197.85 -449.35 1184.32 -584.58 1169.37 -718.55 1138.74 -679.23 1126.8 -521.43 1121.94 -371.87 1137.25 -345.67 1161.15 -459.08 1184.7 -546.33 1214.07 -613.35 1249.26 -644.39 1289.47 -632.6 1334.51 -579.04 1383.56 -494.6 1434.82 -393.28 1487.65 -294.12 1540.49 -212.9 1591.07 -160.14 1638.34 -142.43 1680.47 -158.16 1715.62 -202.4 1742.71 -263.48 1760.47 -328.91 1767.35 -410.89 1718.33 -429.7 1668.56 -360.09 1630.44 -289.58 1590.95 -210.62 1552.93 -130.79 1520.28 -54.43 1494.61 10.9 1478.41 61.93 1474.17 97.74 1482.38 117.07 1503.58 121.75 1537.34 112.86 1582.14 94.38 1635.79 70.01 1695.06 40.27 1756.62 10.72 1816.53 -15.99 1870.67 -40.91 1915.54 -59.67 1947.87 -71.63 1965.54 -78.66 1967.09 -78.58 1952.3 -72.16 1923.07 -60.98 1881.14 -44.8 1829.92 -24.86 1774.7 -1.71 1719.35 23.55 1668.83 49.84 1628.57 77.79 1601.59 105.53 1590.75 132.3 1597.88 159.71 1622.31 185.46 1662.31 209.11 1714.77 232.91 1775.02 254.32 1837.69 273.17Q1837.69 273.17 1837.69 273.17" opacity="0.53"></path><path d="M1753.66 483.33C1808.82 500.73 1856.26 520.89 1892.42 543.69 1915.24 566.39 1922.49 591.56 1913.85 618.88 1890.35 645.79 1853.5 674.39 1806.14 704.12 1751.67 732.69 1693.87 761.45 1636.7 789.51 1510.06 856.35 1558.18 866.5 1683.64 791.45 1760.35 733.57 1803.77 685.6 1803.91 674.55 1760.98 721.07 1681.65 827.3 1581.13 977.53 1474.31 1122.48 1378.6 1218.7 1305.75 1223.06 1255.44 1076.16 1317.4 1013.92 1382.59 1276.5 1435.63 1389.79 1438.63 1080.31 1387.5 1236.21 1336.36 1441.5 1276.85 1519.55 1213.18 1399.31 1144.88 1209.46 1077.51 1149.44 1013.34 1302.32 949.11 1519.9 889.79 1576.42 835.81 1409.48 809.15 1299.09 783.78 1216.36 759.67 1189.49 735.74 1229.23 712.98 1324.09 691.36 1444.56 669.84 1551.18 649.38 1608.89 629.95 1597.52 610.56 1521.11 592.15 1404.75 574.76 1288.47 557.36 1213.92 541.18 1206.52 526.21 1267.49 511.27 1375.9 497.6 1493.34 485.24 1580.01 472.97 1607.88 462.09 1567.25 452.65 1472.04 443.4 1352.48 435.67 1246.5 429.52 1186.12 415.31 1356.09 417.67 1346.03 428.46 1121.78 431.83 1212.6 432.55 1399.37 426.56 1492.39 408.35 1401.13 377.29 1197.69 330.3 1042.92 267.82 1041.64 190.07 1172.69 100.22 1316.47 7.07 1364.22 -84.33 1272.9 -164.15 1100.18 -237.39 896.98 -189.63 1043.12 -90.55 1153.63 -26.26 1138.89 19.34 1053.45 31.24 929.08 0.05 791.12 -71.71 675.91 -173.92 597.49 -286.3 556.14 -386.13 548.28 -450 559.22 -463.57 586.11 -422.89 610.92 -338.33 625.93 -287.88 633.13 -235.99 636.89 -186.62 637.15 -128.07 634.91 -91.46 613.85 -120.95 596.16 -158.85 583.37 -207.17 568.25 -262.33 550.85 -320.2 533.45 -375.49 513.99 -423.96 492.42 -462.64 470.72 -487.96 446.66 -498.18 420.07 -493.09 393.05 -472.7 363.13 -438.69 330.15 -393.64 296.52 -340.64 259.67 -283.42 219.66 -171.32 139.03 -85.59 49.76 -44.9 -40.25 -56.65 -114.32 -112.04 -168.26 -192.35 -187.22 -278.55 -169.11 -344.61 -112.71 -374.68 -31.88 -363.18 35.35 -309.59 65.35 -224.66 26.49 -121.35 -84.14 -16.97 -242.9 74.03 -394.94 142.65 -473 182.3 -445.09 193.91 -325.37 179.36 -198.24 147.88 -150.32 108.76 -239.12 47.56 -508.89 -1.12 -425.39 23.53 -280.27 58.04 -404.29 103.85 -619.42 157 -735.77 216.97 -647.85 279.06 -448.92 340.4 -355.87 403.52 -484.56 463.25 -709.76 518.47 -788.92 546.04 -735.27 572.39 -635.23 597.45 -520.76 622.45 -430.64 646.19 -394.25 668.65 -425.53 691.06 -515.62 712.23 -635.65 732.13 -745.81 752.03 -808.56 770.69 -802.08 788.09 -727.57 805.48 -611.29 821.41 -494.04 835.88 -415.86 850.33 -402.72 863.3 -457.79 874.77 -560.95 903.65 -725.15 937.53 -405.12 939.9 -622.98 941.53 -714.95 955.36 -337.34 984.47 -536.41 1019.99 -665.87 1069.37 -623.05 1133.98 -442.34 1210.51 -256.46 1297.97 -196.14 1391.12 -279.09 1480.03 -430.42 1559.28 -527.34 1619.44 -503.39 1653.42 -367.53 1657.2 -192.25 1629.67 -59.3 1579.74 -13.86 1514.1 -58.26 1447.03 -149.59 1398.33 -246.2 1378.46 -296.98 1397.99 -286.38 1459.09 -218.22 1553.51 -111.46 1665.21 6.71 1771.02 125.06 1849.06 220.85 1880.45 290.38 1859.4 338.33 1790.28 366.11 1691.61 383.22 1641.1 387.98 1594.02 392.32 1554.07 397.12 1517.11 403.27 1535.02 423.81 1589.41 439.95 1639.61 451.51 1695.79 465.94 1753.66 483.33Q1753.66 483.33 1753.66 483.33" opacity="0.15"></path><path d="M1669.66 365.1C1795.61 407.09 1754.29 437.67 1609.96 435.33 1508.06 438.94 1429.19 446.85 1387.76 467.86 1390.32 508.63 1431.52 573.61 1498.48 666.21 1577.92 773.79 1648.8 891.57 1696.41 999.08 1713.62 1069.19 1694.34 1088.13 1642.37 1045.52 1564.78 961.79 1472.66 863.4 1378.14 797.8 1289.76 809.51 1217.54 908.18 1165.95 1069.23 1136.7 1222.39 1128.5 1301.13 1136.85 1261.8 1160.02 1135 1189.46 1000.63 1219.32 959.84 1249.77 1058.61 1272.65 1246.08 1285.79 1400.22 1291.9 1411.41 1286.85 1275.37 1271.88 1105.83 1249.78 1058.77 1220.23 1186.74 1185.58 1393.36 1146.72 1498.44 1105.65 1408.96 1064.29 1210.11 1021.28 1104.7 979.78 1204.06 940.93 1418.34 901.74 1529.37 865.92 1420.36 834.03 1204.47 802.13 1119.14 774.91 1253.44 751.98 1457.51 728.71 1517.51 708.99 1369.24 691.85 1163.55 673.06 1097.05 655.04 1223.96 636.03 1410.28 612.82 1479.56 585.73 1362.6 552.55 1161.08 512.25 1035.55 463.4 1077.05 404.93 1232.09 339.41 1372.19 265.69 1380.32 186.08 1250.52 107.07 1063.68 30.16 935.62 -38.64 927.73 -110.42 1094.97 -114.78 1177 -47.85 973.46 9 828.68 65.6 740.13 109.98 720.94 128.74 764.17 117.11 839.17 71.45 912.87 -4.59 969.49 -101.47 986.53 -204.29 964.95 -294.62 910.46 -356.59 834.05 -377.15 749.79 -353.71 658.36 -290.08 574.75 -200.48 502.89 -109.43 434.77 -36.87 378.73 -2.74 332.69 -19.12 288.56 -82.4 251.14 -178.33 219.24 -283.23 187.35 -367.5 161.73 -410.44 143.73 -403.68 127.65 -347.63 122.47 -256.66 130.44 -151.28 142.14 -54.33 166.66 15.02 200.23 44.5 226.62 32.05 246.39 -15.02 245.62 -86.6 211.94 -162.86 141.02 -227.11 32.04 -269.28 -94.02 -278.03 -219.87 -252.32 -312.27 -196.03 -342.26 -116.67 -301.19 -25.42 -202.06 68.97 -97.1 154.94 -34.97 225.39 -64.05 276.96 -187.28 307.31 -359.56 318.66 -498.24 312.12 -528.04 294.18 -435.52 270.54 -281.89 241.46 -185.28 215.43 -224.28 195.76 -392.81 176.98 -610.07 196.14 -315.46 229.76 -354.59 258.7 -558.89 291.64 -701.07 326.7 -646.92 363.71 -453.55 400.88 -314.63 436.94 -380.88 473.48 -591.25 507.97 -728.83 539.86 -643.57 571.76 -427.68 600.3 -315.38 625.89 -420.04 651.95 -628.03 676 -718.05 699.14 -600.37 724.23 -389.21 750.37 -284.46 779.3 -371.5 812.57 -560.12 851.17 -667.36 896.77 -596.95 948.54 -404.05 1008.51 -242 1076.63 -224.71 1148.67 -350.38 1225.54 -506.94 1303.77 -572.53 1376.57 -498.56 1441.98 -328.69 1494.16 -164.22 1528.45 -87.2 1541.89 -126.1 1532.13 -237.45 1503.48 -356.71 1457.31 -411.6 1400.58 -377.7 1346.98 -266.48 1303.14 -120.63 1280.06 12.26 1287.56 104.04 1327.22 135.96 1397.83 118.24 1490.53 63.1 1592.79 -0.77 1687.74 -53.08 1758.2 -90.41 1791.42 -98.75 1779.93 -81.67 1728.57 -44.82 1646.85 6.34 1553.78 62.88 1475.12 126.19 1428.46 185.78 1428 237.67 1477.25 290.37 1564.76 333.2 1669.66 365.1Q1669.66 365.1 1669.66 365.1" opacity="0.30"></path><path d="M1585.66 384.33C1673.94 413.33 1733.82 452.45 1753.63 501.15 1731.23 549.69 1670.3 607.02 1583.71 670.83 1487.59 730.87 1399.24 791.18 1333.1 844.63 1298.9 882.68 1299.4 901.69 1330.67 894.24 1386.93 864.57 1454.08 811.01 1519.24 743.42 1574.26 686.96 1607.08 653.68 1613.27 665.24 1593.02 730.95 1547.4 845.55 1482.54 986.63 1404 1109.99 1320.41 1180.9 1239.13 1169.97 1163.99 1086.13 1101.12 964.93 1052.52 869.61 1018.53 861.82 998.76 957.52 990.57 1123.1 993.6 1273.67 1002.87 1331.05 1014.89 1259.66 1031.1 1111.19 1045.34 984.73 1055.65 978.58 1067.45 1203.51 1058.72 1276.43 1039.17 1042.22 1023.14 1040.64 1003.01 1196.1 979.48 1383.5 955.55 1441.45 928.96 1317.59 899.96 1120.47 870.97 1033.19 840.26 1132.4 807.71 1322.97 774.77 1437.08 739.24 1373.05 700.59 1187.92 660.65 1031.67 616.56 1025.66 567.84 1161.94 517.27 1329.15 461.77 1391.52 401.72 1303.52 341.17 1124.23 277.93 973.55 214.11 939.95 154.48 1032.85 98.99 1179.07 51.27 1281.23 14.77 1279.06 -8.6 1168.98 -16.1 1008.95 -8.99 868.15 14.06 806 51.2 832.57 94.47 925.98 141.88 1032.81 186.18 1105.69 216.8 1120.56 230.13 1068.29 220.19 968.65 183.82 842.78 122.89 723.81 42.01 631.74 -49 572.66 -139.78 550.75 -217.3 556.23 -269.82 584.39 -289.19 619.31 -271.35 650.67 -221.58 681.96 -147.08 700.4 -62.15 705.47 13.24 705.49 65.65 694.5 82.3 675.41 56.76 654.46 -6.05 628.8 -94.33 599.81 -190.04 570.81 -270.36 539.17 -318.83 503.64 -327.72 466.27 -293.96 421.61 -225.28 366.92 -134.91 307.16 -39.3 235.01 45.08 151.13 105.3 67.16 133.36 -19.25 128.24 -97.66 92.14 -153.4 35.77 -180.51 -28.92 -169.04 -93.43 -124.59 -143.69 -51.85 -172.16 29.32 -176.66 84.29 -154.29 93.42 -108.54 37.08 -43.79 -77.26 32.99 -223.9 114.32 -355.32 195.89 -419.91 270.28 -393.98 333.73 -287.43 385.28 -161.64 422.91 -83.82 447.83 -111.82 460.56 -244.15 464.28 -418.47 462.18 -537.25 453.51 -529.54 443.78 -402.51 435.46 -244.46 425.63 -177.69 419.9 -258.91 419.17 -442.47 419.17 -595.13 424.68 -603.01 435.57 -457.97 447.33 -284.03 463.93 -228.48 484.97 -348.29 506.31 -544.59 531.55 -646.79 560.55 -559.57 589.54 -362.45 621.6 -235.6 656.74 -287.76 692.17 -469.41 731.22 -616.38 774.15 -603.65 817.93 -441.84 866.14 -260.85 918.75 -197.36 972.08 -291.17 1029.32 -459.03 1089.39 -569.36 1147.96 -541.99 1206.68 -391.91 1262.96 -217.57 1312.67 -120.3 1355.18 -149.57 1387.13 -269.95 1406.9 -405.34 1412.43 -468.76 1402.36 -426.75 1380.4 -297.2 1345.82 -139.8 1302.25 -17.96 1258.93 30.98 1218.33 -0.1 1187.82 -81.98 1176.31 -181.57 1186.22 -253.02 1220.91 -274.04 1279.57 -240.91 1357.93 -161.41 1448.3 -57.35 1538.86 57.84 1618.86 160.4 1676.21 240.31 1702.59 298.01 1693.4 330.5 1649.55 345.06 1581.53 344.21 1499.75 337.62 1420.58 332.26 1363.09 323.13 1337.86 321.45 1352.48 329.38 1406.7 337.16 1489.95 355.34 1585.66 384.33Q1585.66 384.33 1585.66 384.33" opacity="0.35"></path><path d="M1501.69 465.25C1611.24 499.73 1640.65 521.61 1553.73 509.42 1471.15 499.69 1384.96 484.69 1307.27 469.11 1247.69 463.51 1212.87 467.73 1204.8 489.81 1223.41 533.93 1262.41 602.86 1314.05 696.04 1372.99 799.43 1427.93 905.68 1471.66 995.73 1501.44 1048.48 1511.29 1053.78 1500.84 1006.31 1471.81 924.26 1426.1 828.94 1368.23 756.93 1301.08 744.93 1230.34 805.49 1160.38 930.4 1092.36 1076.51 1030.91 1193.34 977.52 1230.63 931.61 1173.82 894.59 1049.55 865.49 922.75 843.62 869.99 827.51 926.62 815.27 1074.51 807.53 1235.16 801.08 1320.63 794.31 1277.98 786.13 1062.33 757.24 1107.23 733.61 1335.79 716.55 1345.55 695.07 1214.06 668.98 1036.48 642.88 949.31 612.78 1015.55 579.01 1180.84 545.34 1325.43 508.21 1342.9 468.2 1223.88 428.79 1048.43 387.26 931.78 344.69 941.72 304.11 1065.26 264.22 1215.79 226.73 1298 193.75 1263.83 165.77 1130.33 144.79 970.06 131.04 859.16 126.46 846.75 132.15 924.54 145.32 1049.6 167.93 1153.73 198.62 1189.68 231.23 1143.04 266.14 1030.43 299.09 893.57 329.33 734.05 294.3 760.25 217.9 872.07 147 937.4 66.76 970.32 -15.44 967.29 -90.36 931.37 -150.62 869.2 -188.36 792.99 -199.42 706.14 -181.58 622.56 -136.73 548.14 -73.77 478.63 -0.04 421.7 72.46 375.78 129.09 335.16 161.83 301.79 163.4 272.74 131.09 245.31 70.05 219.13 -10.29 193.03 -96.69 166.94 -171.94 141.55 -223.48 118.15 -244.79 96.37 -231.07 79.66 -185.5 71.06 -115.7 67.77 -31.99 76.36 53.3 98.52 129.35 125.6 186.58 162.83 219.54 204.46 225.52 235.45 207.11 253.52 169.79 246.59 117.87 206.77 61.95 132.26 10.07 26.71 -34.08 -89.48 -62.33 -200.01 -72.06 -277.94 -63.82 -301.54 -36.91 -264.36 5.54 -175.55 60.91 -72.9 124.64 7.13 192.2 22.96 262.08 -43.8 329.1 -176.98 390.76 -329.21 447.52 -434.17 496.48 -447.06 537.72 -359.43 572.39 -222.43 600.4 -110.2 623.2 -95.16 641.1 -196.5 656.06 -364.01 669.68 -502.29 680.71 -526.95 692.29 -422.76 705.55 -257.38 717.84 -148.43 732.9 -173.58 751.32 -323.34 769.55 -493.79 791.58 -562.67 817.67 -475.5 843.77 -297.92 873.31 -163.79 905.92 -168.38 938.32 -305.26 973.35 -470.63 1010.27 -547.06 1046.22 -483.57 1082.98 -321.69 1119.3 -166.03 1153.03 -108.64 1184.41 -177.13 1211.74 -318.65 1234.16 -447.41 1250.25 -482.78 1258.43 -406.74 1260.03 -256.66 1252.67 -107.11 1236.13 -23.12 1214.69 -33.25 1186.51 -121.01 1153.96 -236.31 1123.75 -330.41 1095.85 -358.4 1074.67 -312.19 1066.42 -205.99 1072.08 -74.83 1094.66 44.55 1135.2 129.35 1192.51 162.9 1263.83 150.36 1342.88 100.54 1424.09 35.89 1499.29 -24.65 1579.72 -87.39 1578.76 -54.51 1497.32 19.49 1426.74 82.42 1355.49 145.76 1295.76 204.71 1260.26 264.94 1254.22 317.36 1280.7 361.01 1337.39 404.35 1415.29 439.16 1501.69 465.25Q1501.69 465.25 1501.69 465.25" opacity="0.23"></path><path d="M1417.69 289.03C1489.87 312.23 1545.53 342.32 1577.63 379.39 1583.72 417.01 1562.04 462.48 1516.21 515.79 1452.29 569.58 1377.83 630.07 1301.59 694.69 1231.19 754.49 1173.8 811.29 1134.03 858.35 1114.68 888.61 1115.43 898.8 1133.7 883.8 1167.71 848.22 1210.67 792.1 1256.89 724.47 1304.06 665.6 1344.65 625.27 1375.07 620.47 1395.12 660.97 1401.05 745.49 1393.12 862.38 1372.81 982.7 1340.78 1080.31 1299.65 1125.52 1250.69 1104.8 1197.14 1023.92 1141.68 910.83 1084.14 814.83 1028.18 774.4 975.26 816.15 923.9 930.58 876.9 1077.28 834.43 1195.64 794.56 1232.58 758.87 1171.36 726.81 1040.13 696.8 909.73 669.41 847.83 643.91 894.55 619.48 1030.11 595.98 1184.63 572.91 1272.07 550.12 1242.12 527.2 1109.94 504.01 952.48 480.81 867.49 457.88 904.17 435.49 1036.2 413.38 1186.87 392.36 1266.44 373.05 1232.26 354.8 1103.74 339.22 949.53 327.15 847.17 317.12 842.85 311.61 931.63 311.29 1062.45 313.56 1173.3 321.36 1208.22 334.63 1153.73 349.46 1031.51 368.44 890.85 390.23 782.47 409.95 738.42 428.97 766.95 444.74 847.06 452.68 949.95 452.86 1034.29 442.77 1074.23 420.3 1060.72 385.42 996.13 337.97 899.02 280.16 786.24 213.74 682.85 142.43 603.7 72.05 553.95 6.62 537.08 -48.08 546.12 -87.03 577.1 -106.69 617.07 -104.34 656.55 -81.57 696.47 -39.28 725.39 18.01 741.68 81.16 750.77 144.55 748.03 199.52 736.25 236.4 719.71 251.25 698.22 240.57 674.53 203.88 649.56 145.87 624.93 73.69 601.73 -3.28 578.54 -72.47 557.33 -124.66 537.12 -154.92 515.62 -157.94 492.59 -134.17 465.4 -87.39 433.43 -22.93 393.21 51.24 342.04 127.46 283.67 197.56 213.55 255.09 133.44 295.61 53.76 316.7 -25.4 318.71 -94.47 302.13 -141.62 271.83 -161.74 232.76 -147.75 187.18 -104.36 142.68 -35.5 103.75 44.08 71.14 108.02 50.18 140.77 41.96 123.89 45.34 53.57 61.44 -59.71 88.47 -189.99 124.97 -297.5 168.83 -351.88 217.42 -332 270.46 -247.79 324.51 -129.61 377.69 -28.06 431.22 5.76 481.83 -48.04 528.81 -175.88 574.29 -323.7 615.8 -427.61 653.47 -436.41 689.56 -347.15 722.42 -204.03 752.5 -84.45 781.66 -59.18 808.83 -145.54 834.4 -300.79 859.71 -437.42 883.92 -476.5 907.12 -391.56 930.31 -234.11 951.95 -99.54 971.82 -64.96 991.43 -147.78 1008.77 -295.47 1023.36 -422.1 1037.02 -459.9 1047.14 -386.94 1053.14 -243.47 1057.55 -99.14 1057.24 -22.79 1051.95 -42.71 1045.18 -144.06 1033.76 -271.85 1018.32 -365.61 1003.23 -386.68 986.15 -323.79 968.86 -203.63 956.03 -66.39 946.7 40.31 943.38 88.43 949.54 70.61 965.29 1.96 992.32 -87.95 1030.94 -174.44 1080.85 -227.11 1140.85 -234.43 1207.17 -196.44 1277.49 -121.59 1347.23 -26.97 1410.45 76.4 1463.23 169.5 1500.5 243.17 1519.18 296.26 1516.99 325.27 1493.47 335.2 1452.94 328.34 1397.95 312.75 1334.82 295.02 1273.73 272.49 1220.34 254.97 1182.52 244.93 1167.7 235.36 1177.55 234.42 1212.39 241.97 1269.17 250.08 1340.71 265.83 1417.69 289.03Q1417.69 289.03 1417.69 289.03" opacity="0.64"></path><path d="M1333.69 550.04C1397.47 570.33 1449.21 585.24 1483.88 594.43 1499.61 602.98 1493.83 604.7 1467.81 598.89 1424.71 591.61 1368.31 576.42 1304.1 554.02 1237.13 532.43 1173.05 507.34 1116.55 482.91 1070.94 468.03 1038.85 462.86 1021.08 473.71 1018.17 504.53 1028.11 557.06 1048.32 631.41 1078.05 718.54 1112.31 813.6 1147.74 903.8 1184.09 972.15 1216.24 1009.28 1242.17 1005.16 1262.81 961.89 1274.85 886.13 1278.21 795.61 1274.37 719.35 1262.38 677.21 1243.46 688.33 1218.63 756.02 1188.83 867.06 1155.6 992.97 1118.88 1094.48 1080.7 1141.26 1042.32 1115.25 1002.47 1027.37 963.69 907.75 926.74 803.44 889.44 760.75 854.5 799.18 822.29 909.14 790.1 1047.2 760.73 1157.41 734.35 1190.63 708.01 1131.95 684.6 1005.44 664.3 868.48 644.01 787.71 627.3 799.35 614.11 894.37 596.17 1086.01 577.88 1080.05 577.03 888.29 577.16 782.02 579.89 742.46 584.57 777.49 587.78 871.11 591.65 983.46 595.05 1073.29 594.95 1112.93 592.39 1087.39 585.94 1006.89 573.59 892.52 555.36 776.44 530.16 685.76 497.76 636.32 457.85 635.12 410.61 673.89 358.08 741.99 300.6 817.47 240.28 882.82 180.88 929.86 124.03 946.65 73.16 933.43 31.81 893.34 2.21 833.03 -12.97 761.89 -13.31 682.87 2.23 606.96 32.96 539.12 74.59 477.15 125.45 426.98 180.97 387.61 233.73 355.52 280.43 331.23 315.71 311.86 333.89 296.25 333.7 281.95 313.95 266.85 275.27 252.67 221.47 235.83 157.69 215.54 90.23 195.24 27.99 171.97 -22.64 146.61 -58.28 122.18 -74.04 97.52 -68.99 74.85 -44.67 55.95 -2.86 42.63 52.05 37.89 115.49 40.43 181.99 54.54 246.28 81.34 304.4 114.01 352.29 155.61 387.67 201.31 413.01 253.11 383.4 234.37 341.48 134.81 307.28 40.42 273.64 -62.92 243.1 -157.63 214.95 -223.01 193.37 -247.16 179.21 -221.7 170.93 -155 170.67 -61.53 177.82 31.71 190.89 91.09 210.06 96.98 234.01 39.26 262.14 -68.65 293.22 -197.54 325.95 -306.06 360.92 -355.98 396.07 -329.66 430.45 -234.87 465.72 -111.49 499.39 -7.29 530.88 30.94 562.62 -17.74 591.84 -135.97 618.2 -275.49 644.6 -374.55 668.07 -388.29 688.36 -307.56 708.66 -170.61 725.31 -42.02 738.44 20.71 751.61 -8.46 761.35 -112.68 767.89 -242.91 774.68 -345.06 778.61 -373.82 780.15 -319.7 782.6 -203.94 783.5 -71.1 783.7 31.65 786.15 72.56 789.37 42.34 794.56 -41.05 803.94 -148.86 817.12 -240.24 835.34 -286.8 859.47 -276.8 889.94 -212.07 927.26 -111.85 970.46 2.63 1019.91 103.73 1074.67 173.6 1131.81 204.33 1190.78 195.07 1248.94 155.76 1302.51 94.6 1349.75 29.76 1387.44 -26.09 1419.14 -79.25 1388.79 -44.62 1329.86 25.16 1280.46 84.76 1227.17 145.9 1175.18 204.32 1131.72 263.54 1099.6 316.33 1083.11 361.88 1085.89 405.97 1107.62 443.21 1147.29 474.19 1201.93 504.53 1266.23 529.74 1333.69 550.04Q1333.69 550.04 1333.69 550.04" opacity="0.10"></path><path d="M1249.66 219.83C1304.82 237.23 1351.56 257.6 1386.51 281.22 1408.54 305.44 1415.03 334.02 1406.03 367.77 1347.37 440.39 1248.39 539.22 1136.11 659.3 1032.93 767.36 959.01 853.72 921.92 876.83 922.95 826.27 951.44 711.54 993.14 595.14 1044.78 573.38 1087.39 682.71 1114.04 883.69 1130.41 1032.33 1127.89 1014.51 1110.23 836.75 1084.01 686.25 1049.4 727.92 1011.61 945.87 991.84 1048.48 972.19 1103.51 953.08 1091.28 933.82 1016.06 915.38 900.75 897.99 784.47 880.59 709.92 864.64 701.91 850.01 760.42 835.24 865.69 821.5 979.77 808.46 1065.26 780.63 1064.89 751.95 865.21 717.87 680.16 675.23 676.92 620.45 832.55 550.46 981.06 470.18 999.76 377.62 868.83 280.38 687.68 193.07 546.84 123.32 508.82 86.07 551.43 86.93 643.26 129.64 722.17 207.32 761 294.1 768.47 373.28 739.58 418.51 695.07 420.79 668.89 409.19 643.07 383.72 619.23 345.32 594.79 296.82 573.54 241.66 556.15 183.79 538.75 129.25 525.61 82.21 516.16 44.62 506.11 20.54 498.54 11.28 491.92 35.65 470.81 111.56 436.42 216.54 368.66 328.49 269.54 423.82 133.34 488.51 -12.12 517.21 -108.37 513.5 -120.32 488.5 -25.11 445.6 110.44 403 200.13 370.17 145.24 336.92 -132.9 360.68 0.83 402.77 77.77 418.82 -14.39 435.65 -133.59 452.89 -242.31 470.28 -304.29 487.76 -298.08 505.16 -223.57 522.56 -107.29 539.46 9.78 555.95 88.47 572.6 104.17 589.16 54.29 605.92 -41.58 641.24 -246.13 680.96 -268.03 728.8 -92.05 784.16 111.22 852.3 160.27 933.76 47.86 1020.22 -116.89 1112.76 -184.97 1201.27 -117.61 1271.88 44.38 1316.84 209.06 1324.36 313.24 1295.91 343.77 1231.78 314.7 1145.33 266.94 1065.86 207.16 1009.75 171.63 998.81 164.62 1014.78 163.68 1043.98 168.49 1085.01 178.16 1135.49 188.42 1191.79 202.43 1249.66 219.83Q1249.66 219.83 1249.66 219.83" opacity="0.62"></path><path d="M1165.66 599.49C1282.88 639.34 1277.84 652.63 1166.34 597 1073.15 546.71 983.61 486.85 908.74 444 853.2 451.7 820.36 521.68 807.21 655.75 812.77 806.9 828.41 923.96 847 941.08 880.91 772.98 909.86 703.1 898.79 965.37 887.2 1019.48 866.79 897.59 837.79 700.47 808.8 613.19 772.59 708.83 729.5 890.67 685.57 1007.15 633.48 959.33 573.72 793.26 513.19 622.76 446.46 557.16 377.35 613.04 314.08 745.3 256.8 861.01 213.24 901.97 188.39 858.02 186.86 749.44 212.2 622.72 256.88 499.2 320.41 411.42 392.35 359.7 453.22 335.05 495.48 327.79 506.38 321.98 477.71 322.2 413.94 310.45 325.66 281.45 229.95 252.46 151.94 207.59 106.83 152.69 98.59 103.82 130.97 58.33 194.95 32.74 279.83 34.21 371.82 74.24 457.86 153.07 531.67 235.1 585.89 302.05 620.16 308.01 635.21 229.06 636.17 78.97 629.52 -83.47 613.83 -169.55 599.39 -129.97 590.61 19.25 580.57 164.07 579.43 195.43 588.28 67.79 597.44 -125.22 616.37 -226.79 645.36 -139.57 674.36 57.54 712.04 185.36 757.56 142.48 803.39 -27.39 857.29 -173.31 917.57 -184.17 976.6 -56.07 1038.78 122.55 1099.17 244.55 1150.51 257.62 1191.17 174.94 1214.12 61.8 1217.86 -34.26 1198.02 -62.62 1154.4 -25.63 1098.55 61.89 1032.56 169.5 968.94 270.04 926.21 366.13 910.33 438.46 929.76 490.27 986.06 535.58 1069.95 570.5 1165.66 599.49Q1165.66 599.49 1165.66 599.49" opacity="0.37"></path><path d="M1081.69 193.06C1153.87 216.25 1207.79 240 1237.29 267.68 1242.5 300.12 1221.1 344.92 1177.97 407.93 1118.44 481.41 1049.18 573.38 977.86 674.69 907.51 761.15 844.58 823.08 791.86 836.7 748.52 796.84 715.91 706.75 692.11 594.04 676.14 512.46 664.89 495.7 655.34 568.09 645.31 779.33 609.92 838.89 578.37 616.48 555.17 531.49 526.6 565.84 493.99 689.86 462.17 835.21 427.91 917.03 393.77 899.18 363.13 793.86 336.17 650.8 316.39 528.64 304.44 461.68 303.75 464.63 316.69 517.89 339 603.28 374.43 682.85 420.63 736.09 467.8 763.99 516.25 757.88 558.78 728.8 584.91 682.82 593.11 631.34 578.94 584.6 540.49 535.07 481.87 497.01 409.69 473.82 332.71 450.62 265.47 443.39 216.66 449.17 188.19 452.17 186.12 461.45 208.43 467.23 250.84 456.11 308.89 424.02 375.17 360.37 446.18 271.39 514.79 158.52 576.63 42.72 632.29 -40.93 678.2 -71.39 714.82 -28.6 744.19 69.39 767.04 191.65 785.89 279.98 800.88 280.84 815.4 185.85 831.56 31.56 846.74 -101.42 865.49 -140.51 888.69 -55.57 911.88 101.87 938.42 236.5 966.99 275.54 994.57 203.53 1022.25 69.6 1047.46 -51.08 1068.81 -106.47 1084.16 -68.93 1090.55 36.79 1089.68 173.66 1077.08 291.25 1051.82 361.51 1020.38 378.31 979.27 349.68 932.42 298.97 890.29 233.41 853.04 179.64 827.62 146.35 822.31 123.55 837.58 120.94 874.99 132.24 932.75 148.3 1004.69 169.85 1081.66 193.05Q1081.69 193.06 1081.69 193.06" opacity="0.57"></path><path d="M997.65 602C1052.81 619.4 1098.16 638.76 1130.63 657.58 1151.08 673.63 1156.14 683.91 1146.85 683.28 1093.21 656.45 1005.18 561.96 909.69 436.4 811.46 394.07 728.2 491.76 664.71 707.99 635.17 800.03 609.26 848.75 586.63 834.56 564.51 761.89 544.74 648.69 527.34 532.41 509.94 457.9 495.75 448.7 485.06 502.09 472.01 653.77 486.2 739.77 553.31 483.12 603.19 358.08 654.32 332.32 682.46 349.27 679 369.16 664.03 384.36 636.87 390.43 597.68 397.29 548.81 392.75 493.65 375.35 435.78 357.96 382.76 328.53 338.69 288.85 303.35 249.98 281.76 203.13 274.34 153.09 295.66 75.84 360.98 47.3 445.41 126.74 541.52 261.98 629.85 376.68 700.17 324.2 734.06 229.81 763.72 113.54 789.08 8.33 814.06 -51.76 835.39 -46.09 852.79 28.41 870.19 144.69 882.83 261.41 890.65 340.8 898.1 361.71 900.09 322.89 896.35 243.6 886.33 52.87 852.3 -7.9 801.79 80.02 762.97 251.18 734.55 399.98 738.73 487.1 758.91 517.88 790.39 539.25 832.45 556.01 883.24 569.99 939.78 584.61 997.65 602Q997.65 602 997.65 602" opacity="0.72"></path><path d="M913.69 214.99C985.87 238.19 1036.31 247.72 1060.41 258.4 1064.23 286.73 1044.57 346.26 1010.08 449.91 964.8 572.06 915.67 696.1 871.32 761.31 825.19 731.23 788.1 605.94 764.91 448.48 741.71 363.49 734.6 393.23 740.53 499.37 751.15 672.11 774.11 644.55 750.81 532.42 709.71 452.88 649.87 397.3 577.69 374.1 500.71 350.9 437.36 362.29 395.82 401.64 370.99 435.27 370.48 475.66 388.43 488.2 418.56 445.16 457.08 338.49 495.21 189.77 536.16 66.63 570.86 27.49 594.06 112.48 617.26 269.93 626.76 404.62 626 451.71 628.07 403.5 625.75 304.07 626.02 212.32 638.47 139.07 663.57 115.74 705.4 127.6 763.94 157.13 836.69 191.79 913.66 214.98Q913.69 214.99 913.69 214.99" opacity="0.49"></path></g></svg>